<svg viewBox="0 0 243 479" fill="none" xmlns="http://www.w3.org/2000/svg">
<mask id="path-1-inside-1" fill="white">
<path fill-rule="evenodd" clip-rule="evenodd" d="M7.41552 3C8.9907 3 10.2676 1.88071 10.2676 0.5C10.2676 0.328767 10.248 0.161555 10.2106 0H13.7472C13.7098 0.161555 13.6901 0.328767 13.6901 0.5C13.6901 1.88071 14.9671 3 16.5422 3C18.1174 3 19.3944 1.88071 19.3944 0.5C19.3944 0.328767 19.3747 0.161555 19.3373 0H22.874C22.8366 0.161555 22.8169 0.328767 22.8169 0.5C22.8169 1.88071 24.0939 3 25.6691 3C27.2442 3 28.5212 1.88071 28.5212 0.5C28.5212 0.328767 28.5015 0.161555 28.4641 0H32.0008C31.9634 0.161555 31.9438 0.328767 31.9438 0.5C31.9438 1.88071 33.2207 3 34.7959 3C36.371 3 37.648 1.88071 37.648 0.5C37.648 0.328767 37.6283 0.161555 37.5909 0H41.1275C41.0901 0.161555 41.0704 0.328767 41.0704 0.5C41.0704 1.88071 42.3474 3 43.9226 3C45.4977 3 46.7747 1.88071 46.7747 0.5C46.7747 0.328767 46.755 0.161555 46.7176 0H50.2543C50.2169 0.161555 50.1972 0.328767 50.1972 0.5C50.1972 1.88071 51.4742 3 53.0494 3C54.6245 3 55.9015 1.88071 55.9015 0.5C55.9015 0.328767 55.8818 0.161555 55.8444 0H59.381C59.3436 0.161555 59.3239 0.328767 59.3239 0.5C59.3239 1.88071 60.6009 3 62.176 3C63.7512 3 65.0282 1.88071 65.0282 0.5C65.0282 0.328767 65.0085 0.161555 64.9711 0H68.5078C68.4704 0.161555 68.4507 0.328767 68.4507 0.5C68.4507 1.88071 69.7277 3 71.3029 3C72.878 3 74.155 1.88071 74.155 0.5C74.155 0.328767 74.1353 0.161555 74.0979 0H77.6346C77.5972 0.161555 77.5776 0.328767 77.5776 0.5C77.5776 1.88071 78.8545 3 80.4297 3C82.0048 3 83.2818 1.88071 83.2818 0.5C83.2818 0.328767 83.2621 0.161555 83.2247 0H86.7613C86.7239 0.161555 86.7042 0.328767 86.7042 0.5C86.7042 1.88071 87.9812 3 89.5564 3C91.1315 3 92.4085 1.88071 92.4085 0.5C92.4085 0.328767 92.3888 0.161555 92.3514 0H95.8881C95.8507 0.161555 95.831 0.328767 95.831 0.5C95.831 1.88071 97.108 3 98.6832 3C100.258 3 101.535 1.88071 101.535 0.5C101.535 0.328767 101.516 0.161555 101.478 0H105.015C104.977 0.161555 104.958 0.328767 104.958 0.5C104.958 1.88071 106.235 3 107.81 3C109.385 3 110.662 1.88071 110.662 0.5C110.662 0.328767 110.642 0.161555 110.605 0H114.142C114.104 0.161555 114.085 0.328767 114.085 0.5C114.085 1.88071 115.361 3 116.937 3C118.512 3 119.789 1.88071 119.789 0.5C119.789 0.328767 119.769 0.161555 119.732 0H123.268C123.231 0.161555 123.211 0.328767 123.211 0.5C123.211 1.88071 124.488 3 126.063 3C127.639 3 128.916 1.88071 128.916 0.5C128.916 0.328767 128.896 0.161555 128.859 0H132.395C132.358 0.161555 132.338 0.328767 132.338 0.5C132.338 1.88071 133.615 3 135.19 3C136.765 3 138.042 1.88071 138.042 0.5C138.042 0.328767 138.023 0.161555 137.985 0H141.522C141.484 0.161555 141.465 0.328767 141.465 0.5C141.465 1.88071 142.742 3 144.317 3C145.892 3 147.169 1.88071 147.169 0.5C147.169 0.328767 147.149 0.161555 147.112 0H150.649C150.611 0.161555 150.592 0.328767 150.592 0.5C150.592 1.88071 151.869 3 153.444 3C155.019 3 156.296 1.88071 156.296 0.5C156.296 0.328767 156.276 0.161555 156.239 0H159.775C159.738 0.161555 159.718 0.328767 159.718 0.5C159.718 1.88071 160.995 3 162.57 3C164.146 3 165.423 1.88071 165.423 0.5C165.423 0.328767 165.403 0.161555 165.365 0H168.902C168.865 0.161555 168.845 0.328767 168.845 0.5C168.845 1.88071 170.122 3 171.697 3C173.272 3 174.549 1.88071 174.549 0.5C174.549 0.328767 174.53 0.161555 174.492 0H178.029C177.992 0.161555 177.972 0.328767 177.972 0.5C177.972 1.88071 179.249 3 180.824 3C182.399 3 183.676 1.88071 183.676 0.5C183.676 0.328767 183.657 0.161555 183.619 0H187.156C187.118 0.161555 187.099 0.328767 187.099 0.5C187.099 1.88071 188.376 3 189.951 3C191.526 3 192.803 1.88071 192.803 0.5C192.803 0.328767 192.783 0.161555 192.746 0H196.282C196.245 0.161555 196.225 0.328767 196.225 0.5C196.225 1.88071 197.502 3 199.078 3C200.653 3 201.93 1.88071 201.93 0.5C201.93 0.328767 201.91 0.161555 201.873 0H205.409C205.372 0.161555 205.352 0.328767 205.352 0.5C205.352 1.88071 206.629 3 208.204 3C209.779 3 211.056 1.88071 211.056 0.5C211.056 0.328767 211.037 0.161555 210.999 0H214.536C214.499 0.161555 214.479 0.328767 214.479 0.5C214.479 1.88071 215.756 3 217.331 3C218.906 3 220.183 1.88071 220.183 0.5C220.183 0.328767 220.164 0.161555 220.126 0H223.663C223.625 0.161555 223.606 0.328767 223.606 0.5C223.606 1.88071 224.883 3 226.458 3C228.033 3 229.31 1.88071 229.31 0.5C229.31 0.328767 229.29 0.161555 229.253 0H232.789C232.752 0.161555 232.732 0.328767 232.732 0.5C232.732 1.88071 234.009 3 235.585 3C237.16 3 238.437 1.88071 238.437 0.5C238.437 0.328767 238.417 0.161555 238.38 0H243V479H238.38C238.417 478.838 238.437 478.671 238.437 478.5C238.437 477.119 237.16 476 235.585 476C234.009 476 232.732 477.119 232.732 478.5C232.732 478.671 232.752 478.838 232.789 479H229.253C229.29 478.838 229.31 478.671 229.31 478.5C229.31 477.119 228.033 476 226.458 476C224.883 476 223.606 477.119 223.606 478.5C223.606 478.671 223.625 478.838 223.663 479H220.126C220.164 478.838 220.183 478.671 220.183 478.5C220.183 477.119 218.906 476 217.331 476C215.756 476 214.479 477.119 214.479 478.5C214.479 478.671 214.499 478.838 214.536 479H210.999C211.037 478.838 211.056 478.671 211.056 478.5C211.056 477.119 209.779 476 208.204 476C206.629 476 205.352 477.119 205.352 478.5C205.352 478.671 205.372 478.838 205.409 479H201.873C201.91 478.838 201.93 478.671 201.93 478.5C201.93 477.119 200.653 476 199.078 476C197.502 476 196.225 477.119 196.225 478.5C196.225 478.671 196.245 478.838 196.282 479H192.746C192.783 478.838 192.803 478.671 192.803 478.5C192.803 477.119 191.526 476 189.951 476C188.376 476 187.099 477.119 187.099 478.5C187.099 478.671 187.118 478.838 187.156 479H183.619C183.657 478.838 183.676 478.671 183.676 478.5C183.676 477.119 182.399 476 180.824 476C179.249 476 177.972 477.119 177.972 478.5C177.972 478.671 177.992 478.838 178.029 479H174.492C174.53 478.838 174.549 478.671 174.549 478.5C174.549 477.119 173.272 476 171.697 476C170.122 476 168.845 477.119 168.845 478.5C168.845 478.671 168.865 478.838 168.902 479H165.365C165.403 478.838 165.423 478.671 165.423 478.5C165.423 477.119 164.146 476 162.57 476C160.995 476 159.718 477.119 159.718 478.5C159.718 478.671 159.738 478.838 159.775 479H156.239C156.276 478.838 156.296 478.671 156.296 478.5C156.296 477.119 155.019 476 153.444 476C151.869 476 150.592 477.119 150.592 478.5C150.592 478.671 150.611 478.838 150.649 479H147.112C147.149 478.838 147.169 478.671 147.169 478.5C147.169 477.119 145.892 476 144.317 476C142.742 476 141.465 477.119 141.465 478.5C141.465 478.671 141.484 478.838 141.522 479H137.985C138.023 478.838 138.042 478.671 138.042 478.5C138.042 477.119 136.765 476 135.19 476C133.615 476 132.338 477.119 132.338 478.5C132.338 478.671 132.358 478.838 132.395 479H128.859C128.896 478.838 128.916 478.671 128.916 478.5C128.916 477.119 127.639 476 126.063 476C124.488 476 123.211 477.119 123.211 478.5C123.211 478.671 123.231 478.838 123.268 479H119.732C119.769 478.838 119.789 478.671 119.789 478.5C119.789 477.119 118.512 476 116.937 476C115.361 476 114.085 477.119 114.085 478.5C114.085 478.671 114.104 478.838 114.142 479H110.605C110.642 478.838 110.662 478.671 110.662 478.5C110.662 477.119 109.385 476 107.81 476C106.235 476 104.958 477.119 104.958 478.5C104.958 478.671 104.977 478.838 105.015 479H101.478C101.516 478.838 101.535 478.671 101.535 478.5C101.535 477.119 100.258 476 98.6832 476C97.108 476 95.831 477.119 95.831 478.5C95.831 478.671 95.8507 478.838 95.8881 479H92.3514C92.3888 478.838 92.4085 478.671 92.4085 478.5C92.4085 477.119 91.1315 476 89.5564 476C87.9812 476 86.7042 477.119 86.7042 478.5C86.7042 478.671 86.7239 478.838 86.7613 479H83.2247C83.2621 478.838 83.2818 478.671 83.2818 478.5C83.2818 477.119 82.0048 476 80.4297 476C78.8545 476 77.5776 477.119 77.5776 478.5C77.5776 478.671 77.5972 478.838 77.6346 479H74.0979C74.1353 478.838 74.155 478.671 74.155 478.5C74.155 477.119 72.878 476 71.3029 476C69.7277 476 68.4507 477.119 68.4507 478.5C68.4507 478.671 68.4704 478.838 68.5078 479H64.9711C65.0085 478.838 65.0282 478.671 65.0282 478.5C65.0282 477.119 63.7512 476 62.176 476C60.6009 476 59.3239 477.119 59.3239 478.5C59.3239 478.671 59.3436 478.838 59.381 479H55.8444C55.8818 478.838 55.9015 478.671 55.9015 478.5C55.9015 477.119 54.6245 476 53.0494 476C51.4742 476 50.1972 477.119 50.1972 478.5C50.1972 478.671 50.2169 478.838 50.2543 479H46.7176C46.755 478.838 46.7747 478.671 46.7747 478.5C46.7747 477.119 45.4977 476 43.9226 476C42.3474 476 41.0704 477.119 41.0704 478.5C41.0704 478.671 41.0901 478.838 41.1275 479H37.5909C37.6283 478.838 37.648 478.671 37.648 478.5C37.648 477.119 36.371 476 34.7959 476C33.2207 476 31.9438 477.119 31.9438 478.5C31.9438 478.671 31.9634 478.838 32.0008 479H28.4641C28.5015 478.838 28.5212 478.671 28.5212 478.5C28.5212 477.119 27.2442 476 25.6691 476C24.0939 476 22.8169 477.119 22.8169 478.5C22.8169 478.671 22.8366 478.838 22.874 479H19.3373C19.3747 478.838 19.3944 478.671 19.3944 478.5C19.3944 477.119 18.1174 476 16.5422 476C14.9671 476 13.6901 477.119 13.6901 478.5C13.6901 478.671 13.7098 478.838 13.7472 479H10.2106C10.248 478.838 10.2676 478.671 10.2676 478.5C10.2676 477.119 8.9907 476 7.41552 476C5.84034 476 4.5634 477.119 4.5634 478.5C4.5634 478.671 4.58304 478.838 4.62046 479H0V0H4.62046C4.58304 0.161555 4.5634 0.328767 4.5634 0.5C4.5634 1.88071 5.84034 3 7.41552 3Z"/>
</mask>
<path fill-rule="evenodd" clip-rule="evenodd" d="M7.41552 3C8.9907 3 10.2676 1.88071 10.2676 0.5C10.2676 0.328767 10.248 0.161555 10.2106 0H13.7472C13.7098 0.161555 13.6901 0.328767 13.6901 0.5C13.6901 1.88071 14.9671 3 16.5422 3C18.1174 3 19.3944 1.88071 19.3944 0.5C19.3944 0.328767 19.3747 0.161555 19.3373 0H22.874C22.8366 0.161555 22.8169 0.328767 22.8169 0.5C22.8169 1.88071 24.0939 3 25.6691 3C27.2442 3 28.5212 1.88071 28.5212 0.5C28.5212 0.328767 28.5015 0.161555 28.4641 0H32.0008C31.9634 0.161555 31.9438 0.328767 31.9438 0.5C31.9438 1.88071 33.2207 3 34.7959 3C36.371 3 37.648 1.88071 37.648 0.5C37.648 0.328767 37.6283 0.161555 37.5909 0H41.1275C41.0901 0.161555 41.0704 0.328767 41.0704 0.5C41.0704 1.88071 42.3474 3 43.9226 3C45.4977 3 46.7747 1.88071 46.7747 0.5C46.7747 0.328767 46.755 0.161555 46.7176 0H50.2543C50.2169 0.161555 50.1972 0.328767 50.1972 0.5C50.1972 1.88071 51.4742 3 53.0494 3C54.6245 3 55.9015 1.88071 55.9015 0.5C55.9015 0.328767 55.8818 0.161555 55.8444 0H59.381C59.3436 0.161555 59.3239 0.328767 59.3239 0.5C59.3239 1.88071 60.6009 3 62.176 3C63.7512 3 65.0282 1.88071 65.0282 0.5C65.0282 0.328767 65.0085 0.161555 64.9711 0H68.5078C68.4704 0.161555 68.4507 0.328767 68.4507 0.5C68.4507 1.88071 69.7277 3 71.3029 3C72.878 3 74.155 1.88071 74.155 0.5C74.155 0.328767 74.1353 0.161555 74.0979 0H77.6346C77.5972 0.161555 77.5776 0.328767 77.5776 0.5C77.5776 1.88071 78.8545 3 80.4297 3C82.0048 3 83.2818 1.88071 83.2818 0.5C83.2818 0.328767 83.2621 0.161555 83.2247 0H86.7613C86.7239 0.161555 86.7042 0.328767 86.7042 0.5C86.7042 1.88071 87.9812 3 89.5564 3C91.1315 3 92.4085 1.88071 92.4085 0.5C92.4085 0.328767 92.3888 0.161555 92.3514 0H95.8881C95.8507 0.161555 95.831 0.328767 95.831 0.5C95.831 1.88071 97.108 3 98.6832 3C100.258 3 101.535 1.88071 101.535 0.5C101.535 0.328767 101.516 0.161555 101.478 0H105.015C104.977 0.161555 104.958 0.328767 104.958 0.5C104.958 1.88071 106.235 3 107.81 3C109.385 3 110.662 1.88071 110.662 0.5C110.662 0.328767 110.642 0.161555 110.605 0H114.142C114.104 0.161555 114.085 0.328767 114.085 0.5C114.085 1.88071 115.361 3 116.937 3C118.512 3 119.789 1.88071 119.789 0.5C119.789 0.328767 119.769 0.161555 119.732 0H123.268C123.231 0.161555 123.211 0.328767 123.211 0.5C123.211 1.88071 124.488 3 126.063 3C127.639 3 128.916 1.88071 128.916 0.5C128.916 0.328767 128.896 0.161555 128.859 0H132.395C132.358 0.161555 132.338 0.328767 132.338 0.5C132.338 1.88071 133.615 3 135.19 3C136.765 3 138.042 1.88071 138.042 0.5C138.042 0.328767 138.023 0.161555 137.985 0H141.522C141.484 0.161555 141.465 0.328767 141.465 0.5C141.465 1.88071 142.742 3 144.317 3C145.892 3 147.169 1.88071 147.169 0.5C147.169 0.328767 147.149 0.161555 147.112 0H150.649C150.611 0.161555 150.592 0.328767 150.592 0.5C150.592 1.88071 151.869 3 153.444 3C155.019 3 156.296 1.88071 156.296 0.5C156.296 0.328767 156.276 0.161555 156.239 0H159.775C159.738 0.161555 159.718 0.328767 159.718 0.5C159.718 1.88071 160.995 3 162.57 3C164.146 3 165.423 1.88071 165.423 0.5C165.423 0.328767 165.403 0.161555 165.365 0H168.902C168.865 0.161555 168.845 0.328767 168.845 0.5C168.845 1.88071 170.122 3 171.697 3C173.272 3 174.549 1.88071 174.549 0.5C174.549 0.328767 174.53 0.161555 174.492 0H178.029C177.992 0.161555 177.972 0.328767 177.972 0.5C177.972 1.88071 179.249 3 180.824 3C182.399 3 183.676 1.88071 183.676 0.5C183.676 0.328767 183.657 0.161555 183.619 0H187.156C187.118 0.161555 187.099 0.328767 187.099 0.5C187.099 1.88071 188.376 3 189.951 3C191.526 3 192.803 1.88071 192.803 0.5C192.803 0.328767 192.783 0.161555 192.746 0H196.282C196.245 0.161555 196.225 0.328767 196.225 0.5C196.225 1.88071 197.502 3 199.078 3C200.653 3 201.93 1.88071 201.93 0.5C201.93 0.328767 201.91 0.161555 201.873 0H205.409C205.372 0.161555 205.352 0.328767 205.352 0.5C205.352 1.88071 206.629 3 208.204 3C209.779 3 211.056 1.88071 211.056 0.5C211.056 0.328767 211.037 0.161555 210.999 0H214.536C214.499 0.161555 214.479 0.328767 214.479 0.5C214.479 1.88071 215.756 3 217.331 3C218.906 3 220.183 1.88071 220.183 0.5C220.183 0.328767 220.164 0.161555 220.126 0H223.663C223.625 0.161555 223.606 0.328767 223.606 0.5C223.606 1.88071 224.883 3 226.458 3C228.033 3 229.31 1.88071 229.31 0.5C229.31 0.328767 229.29 0.161555 229.253 0H232.789C232.752 0.161555 232.732 0.328767 232.732 0.5C232.732 1.88071 234.009 3 235.585 3C237.16 3 238.437 1.88071 238.437 0.5C238.437 0.328767 238.417 0.161555 238.38 0H243V479H238.38C238.417 478.838 238.437 478.671 238.437 478.5C238.437 477.119 237.16 476 235.585 476C234.009 476 232.732 477.119 232.732 478.5C232.732 478.671 232.752 478.838 232.789 479H229.253C229.29 478.838 229.31 478.671 229.31 478.5C229.31 477.119 228.033 476 226.458 476C224.883 476 223.606 477.119 223.606 478.5C223.606 478.671 223.625 478.838 223.663 479H220.126C220.164 478.838 220.183 478.671 220.183 478.5C220.183 477.119 218.906 476 217.331 476C215.756 476 214.479 477.119 214.479 478.5C214.479 478.671 214.499 478.838 214.536 479H210.999C211.037 478.838 211.056 478.671 211.056 478.5C211.056 477.119 209.779 476 208.204 476C206.629 476 205.352 477.119 205.352 478.5C205.352 478.671 205.372 478.838 205.409 479H201.873C201.91 478.838 201.93 478.671 201.93 478.5C201.93 477.119 200.653 476 199.078 476C197.502 476 196.225 477.119 196.225 478.5C196.225 478.671 196.245 478.838 196.282 479H192.746C192.783 478.838 192.803 478.671 192.803 478.5C192.803 477.119 191.526 476 189.951 476C188.376 476 187.099 477.119 187.099 478.5C187.099 478.671 187.118 478.838 187.156 479H183.619C183.657 478.838 183.676 478.671 183.676 478.5C183.676 477.119 182.399 476 180.824 476C179.249 476 177.972 477.119 177.972 478.5C177.972 478.671 177.992 478.838 178.029 479H174.492C174.53 478.838 174.549 478.671 174.549 478.5C174.549 477.119 173.272 476 171.697 476C170.122 476 168.845 477.119 168.845 478.5C168.845 478.671 168.865 478.838 168.902 479H165.365C165.403 478.838 165.423 478.671 165.423 478.5C165.423 477.119 164.146 476 162.57 476C160.995 476 159.718 477.119 159.718 478.5C159.718 478.671 159.738 478.838 159.775 479H156.239C156.276 478.838 156.296 478.671 156.296 478.5C156.296 477.119 155.019 476 153.444 476C151.869 476 150.592 477.119 150.592 478.5C150.592 478.671 150.611 478.838 150.649 479H147.112C147.149 478.838 147.169 478.671 147.169 478.5C147.169 477.119 145.892 476 144.317 476C142.742 476 141.465 477.119 141.465 478.5C141.465 478.671 141.484 478.838 141.522 479H137.985C138.023 478.838 138.042 478.671 138.042 478.5C138.042 477.119 136.765 476 135.19 476C133.615 476 132.338 477.119 132.338 478.5C132.338 478.671 132.358 478.838 132.395 479H128.859C128.896 478.838 128.916 478.671 128.916 478.5C128.916 477.119 127.639 476 126.063 476C124.488 476 123.211 477.119 123.211 478.5C123.211 478.671 123.231 478.838 123.268 479H119.732C119.769 478.838 119.789 478.671 119.789 478.5C119.789 477.119 118.512 476 116.937 476C115.361 476 114.085 477.119 114.085 478.5C114.085 478.671 114.104 478.838 114.142 479H110.605C110.642 478.838 110.662 478.671 110.662 478.5C110.662 477.119 109.385 476 107.81 476C106.235 476 104.958 477.119 104.958 478.5C104.958 478.671 104.977 478.838 105.015 479H101.478C101.516 478.838 101.535 478.671 101.535 478.5C101.535 477.119 100.258 476 98.6832 476C97.108 476 95.831 477.119 95.831 478.5C95.831 478.671 95.8507 478.838 95.8881 479H92.3514C92.3888 478.838 92.4085 478.671 92.4085 478.5C92.4085 477.119 91.1315 476 89.5564 476C87.9812 476 86.7042 477.119 86.7042 478.5C86.7042 478.671 86.7239 478.838 86.7613 479H83.2247C83.2621 478.838 83.2818 478.671 83.2818 478.5C83.2818 477.119 82.0048 476 80.4297 476C78.8545 476 77.5776 477.119 77.5776 478.5C77.5776 478.671 77.5972 478.838 77.6346 479H74.0979C74.1353 478.838 74.155 478.671 74.155 478.5C74.155 477.119 72.878 476 71.3029 476C69.7277 476 68.4507 477.119 68.4507 478.5C68.4507 478.671 68.4704 478.838 68.5078 479H64.9711C65.0085 478.838 65.0282 478.671 65.0282 478.5C65.0282 477.119 63.7512 476 62.176 476C60.6009 476 59.3239 477.119 59.3239 478.5C59.3239 478.671 59.3436 478.838 59.381 479H55.8444C55.8818 478.838 55.9015 478.671 55.9015 478.5C55.9015 477.119 54.6245 476 53.0494 476C51.4742 476 50.1972 477.119 50.1972 478.5C50.1972 478.671 50.2169 478.838 50.2543 479H46.7176C46.755 478.838 46.7747 478.671 46.7747 478.5C46.7747 477.119 45.4977 476 43.9226 476C42.3474 476 41.0704 477.119 41.0704 478.5C41.0704 478.671 41.0901 478.838 41.1275 479H37.5909C37.6283 478.838 37.648 478.671 37.648 478.5C37.648 477.119 36.371 476 34.7959 476C33.2207 476 31.9438 477.119 31.9438 478.5C31.9438 478.671 31.9634 478.838 32.0008 479H28.4641C28.5015 478.838 28.5212 478.671 28.5212 478.5C28.5212 477.119 27.2442 476 25.6691 476C24.0939 476 22.8169 477.119 22.8169 478.5C22.8169 478.671 22.8366 478.838 22.874 479H19.3373C19.3747 478.838 19.3944 478.671 19.3944 478.5C19.3944 477.119 18.1174 476 16.5422 476C14.9671 476 13.6901 477.119 13.6901 478.5C13.6901 478.671 13.7098 478.838 13.7472 479H10.2106C10.248 478.838 10.2676 478.671 10.2676 478.5C10.2676 477.119 8.9907 476 7.41552 476C5.84034 476 4.5634 477.119 4.5634 478.5C4.5634 478.671 4.58304 478.838 4.62046 479H0V0H4.62046C4.58304 0.161555 4.5634 0.328767 4.5634 0.5C4.5634 1.88071 5.84034 3 7.41552 3Z" fill="#FAFAFA"/>
<path d="M10.2106 0V-1H8.95253L9.23636 0.225608L10.2106 0ZM13.7472 0L14.7214 0.225608L15.0052 -1H13.7472V0ZM19.3373 0V-1H18.0793L18.3631 0.225608L19.3373 0ZM22.874 0L23.8482 0.225608L24.132 -1H22.874V0ZM28.4641 0V-1H27.2061L27.4899 0.225608L28.4641 0ZM32.0008 0L32.975 0.225608L33.2589 -1H32.0008V0ZM37.5909 0V-1H36.3329L36.6167 0.225619L37.5909 0ZM41.1275 0L42.1017 0.225619L42.3855 -1H41.1275V0ZM46.7176 0V-1H45.4596L45.7434 0.225619L46.7176 0ZM50.2543 0L51.2285 0.225619L51.5124 -1H50.2543V0ZM55.8444 0V-1H54.5864L54.8702 0.225619L55.8444 0ZM59.381 0L60.3552 0.225619L60.639 -1H59.381V0ZM64.9711 0V-1H63.713L63.9969 0.225619L64.9711 0ZM68.5078 0L69.482 0.225619L69.7659 -1H68.5078V0ZM74.0979 0V-1H72.8399L73.1237 0.225619L74.0979 0ZM77.6346 0L78.6088 0.225619L78.8927 -1H77.6346V0ZM83.2247 0V-1H81.9667L82.2505 0.225619L83.2247 0ZM86.7613 0L87.7355 0.225619L88.0193 -1H86.7613V0ZM92.3514 0V-1H91.0934L91.3772 0.225619L92.3514 0ZM95.8881 0L96.8623 0.225619L97.1462 -1H95.8881V0ZM101.478 0V-1H100.22L100.504 0.225619L101.478 0ZM105.015 0L105.989 0.225619L106.273 -1H105.015V0ZM110.605 0V-1H109.347L109.631 0.225619L110.605 0ZM114.142 0L115.116 0.225619L115.4 -1H114.142V0ZM119.732 0V-1H118.474L118.757 0.225619L119.732 0ZM123.268 0L124.243 0.225619L124.526 -1H123.268V0ZM128.859 0V-1H127.6L127.884 0.225619L128.859 0ZM132.395 0L133.369 0.225619L133.653 -1H132.395V0ZM137.985 0V-1H136.727L137.011 0.225619L137.985 0ZM141.522 0L142.496 0.225619L142.78 -1H141.522V0ZM147.112 0V-1H145.854L146.138 0.225619L147.112 0ZM150.649 0L151.623 0.225619L151.907 -1H150.649V0ZM156.239 0V-1H154.981L155.265 0.225619L156.239 0ZM159.775 0L160.75 0.225619L161.033 -1H159.775V0ZM165.365 0V-1H164.107L164.391 0.225619L165.365 0ZM168.902 0L169.876 0.225619L170.16 -1H168.902V0ZM174.492 0V-1H173.234L173.518 0.225619L174.492 0ZM178.029 0L179.003 0.225619L179.287 -1H178.029V0ZM183.619 0V-1H182.361L182.645 0.225619L183.619 0ZM187.156 0L188.13 0.225619L188.414 -1H187.156V0ZM192.746 0V-1H191.488L191.772 0.225619L192.746 0ZM196.282 0L197.257 0.225619L197.541 -1H196.282V0ZM201.873 0V-1H200.615L200.898 0.225619L201.873 0ZM205.409 0L206.383 0.225619L206.667 -1H205.409V0ZM210.999 0V-1H209.741L210.025 0.225619L210.999 0ZM214.536 0L215.51 0.225619L215.794 -1H214.536V0ZM220.126 0V-1H218.868L219.152 0.225619L220.126 0ZM223.663 0L224.637 0.225619L224.921 -1H223.663V0ZM229.253 0V-1H227.995L228.279 0.225619L229.253 0ZM232.789 0L233.764 0.225619L234.048 -1H232.789V0ZM238.38 0V-1H237.122L237.405 0.225619L238.38 0ZM243 0H244V-1H243V0ZM243 479V480H244V479H243ZM238.38 479L237.405 478.774L237.122 480H238.38V479ZM232.789 479V480H234.048L233.764 478.774L232.789 479ZM229.253 479L228.279 478.774L227.995 480H229.253V479ZM223.663 479V480H224.921L224.637 478.774L223.663 479ZM220.126 479L219.152 478.774L218.868 480H220.126V479ZM214.536 479V480H215.794L215.51 478.774L214.536 479ZM210.999 479L210.025 478.774L209.741 480H210.999V479ZM205.409 479V480H206.667L206.383 478.774L205.409 479ZM201.873 479L200.898 478.774L200.615 480H201.873V479ZM196.282 479V480H197.541L197.257 478.774L196.282 479ZM192.746 479L191.772 478.774L191.488 480H192.746V479ZM187.156 479V480H188.414L188.13 478.774L187.156 479ZM183.619 479L182.645 478.774L182.361 480H183.619V479ZM178.029 479V480H179.287L179.003 478.774L178.029 479ZM174.492 479L173.518 478.774L173.234 480H174.492V479ZM168.902 479V480H170.16L169.876 478.774L168.902 479ZM165.365 479L164.391 478.774L164.107 480H165.365V479ZM159.775 479V480H161.033L160.75 478.774L159.775 479ZM156.239 479L155.265 478.774L154.981 480H156.239V479ZM150.649 479V480H151.907L151.623 478.774L150.649 479ZM147.112 479L146.138 478.774L145.854 480H147.112V479ZM141.522 479V480H142.78L142.496 478.774L141.522 479ZM137.985 479L137.011 478.774L136.727 480H137.985V479ZM132.395 479V480H133.653L133.369 478.774L132.395 479ZM128.859 479L127.884 478.774L127.6 480H128.859V479ZM123.268 479V480H124.526L124.243 478.774L123.268 479ZM119.732 479L118.757 478.774L118.474 480H119.732V479ZM114.142 479V480H115.4L115.116 478.774L114.142 479ZM110.605 479L109.631 478.774L109.347 480H110.605V479ZM105.015 479V480H106.273L105.989 478.774L105.015 479ZM101.478 479L100.504 478.774L100.22 480H101.478V479ZM95.8881 479V480H97.1461L96.8623 478.774L95.8881 479ZM92.3514 479L91.3772 478.774L91.0934 480H92.3514V479ZM86.7613 479V480H88.0193L87.7355 478.774L86.7613 479ZM83.2247 479L82.2505 478.774L81.9667 480H83.2247V479ZM77.6346 479V480H78.8927L78.6088 478.774L77.6346 479ZM74.0979 479L73.1237 478.774L72.8399 480H74.0979V479ZM68.5078 479V480H69.7658L69.482 478.774L68.5078 479ZM64.9711 479L63.9969 478.774L63.7131 480H64.9711V479ZM59.381 479V480H60.639L60.3552 478.774L59.381 479ZM55.8444 479L54.8702 478.774L54.5864 480H55.8444V479ZM50.2543 479V480H51.5123L51.2285 478.774L50.2543 479ZM46.7176 479L45.7434 478.774L45.4596 480H46.7176V479ZM41.1275 479V480H42.3855L42.1017 478.774L41.1275 479ZM37.5909 479L36.6167 478.774L36.3329 480H37.5909V479ZM32.0008 479V480H33.2588L32.975 478.774L32.0008 479ZM28.4641 479L27.4899 478.774L27.2061 480H28.4641V479ZM22.874 479V480H24.132L23.8482 478.774L22.874 479ZM19.3373 479L18.3631 478.774L18.0793 480H19.3373V479ZM13.7472 479V480H15.0052L14.7214 478.774L13.7472 479ZM10.2106 479L9.23636 478.774L8.95254 480H10.2106V479ZM4.62046 479V480H5.87849L5.59468 478.774L4.62046 479ZM0 479H-1V480H0V479ZM0 0V-1H-1V0H0ZM4.62046 0L5.59468 0.225608L5.8785 -1H4.62046V0ZM9.26763 0.5C9.26763 1.20871 8.56627 2 7.41552 2V4C9.41513 4 11.2676 2.55272 11.2676 0.5H9.26763ZM9.23636 0.225608C9.25684 0.314047 9.26763 0.405587 9.26763 0.5H11.2676C11.2676 0.251948 11.2391 0.00906268 11.1848 -0.225608L9.23636 0.225608ZM13.7472 -1H10.2106V1H13.7472V-1ZM14.6901 0.5C14.6901 0.405587 14.7009 0.314047 14.7214 0.225608L12.773 -0.225608C12.7186 0.00906268 12.6901 0.251948 12.6901 0.5H14.6901ZM16.5422 2C15.3915 2 14.6901 1.20871 14.6901 0.5H12.6901C12.6901 2.55271 14.5426 4 16.5422 4V2ZM18.3944 0.5C18.3944 1.20871 17.693 2 16.5422 2V4C18.5419 4 20.3944 2.55271 20.3944 0.5H18.3944ZM18.3631 0.225608C18.3836 0.314047 18.3944 0.405587 18.3944 0.5H20.3944C20.3944 0.251948 20.3659 0.00906268 20.3115 -0.225608L18.3631 0.225608ZM22.874 -1H19.3373V1H22.874V-1ZM23.8169 0.5C23.8169 0.405587 23.8277 0.314047 23.8482 0.225608L21.8998 -0.225608C21.8454 0.00906268 21.8169 0.251948 21.8169 0.5H23.8169ZM25.6691 2C24.5183 2 23.8169 1.20871 23.8169 0.5H21.8169C21.8169 2.55271 23.6694 4 25.6691 4V2ZM27.5212 0.5C27.5212 1.20871 26.8198 2 25.6691 2V4C27.6687 4 29.5212 2.55272 29.5212 0.5H27.5212ZM27.4899 0.225608C27.5104 0.314047 27.5212 0.405587 27.5212 0.5H29.5212C29.5212 0.251948 29.4927 0.00906268 29.4383 -0.225608L27.4899 0.225608ZM32.0008 -1H28.4641V1H32.0008V-1ZM32.9438 0.5C32.9438 0.405587 32.9545 0.314047 32.975 0.225608L31.0266 -0.225608C30.9722 0.00906268 30.9438 0.251948 30.9438 0.5H32.9438ZM34.7959 2C33.6451 2 32.9438 1.20871 32.9438 0.5H30.9438C30.9438 2.55272 32.7963 4 34.7959 4V2ZM36.648 0.5C36.648 1.20871 35.9466 2 34.7959 2V4C36.7955 4 38.648 2.55271 38.648 0.5H36.648ZM36.6167 0.225619C36.6372 0.314044 36.648 0.405579 36.648 0.5H38.648C38.648 0.251955 38.6195 0.0090663 38.5651 -0.225619L36.6167 0.225619ZM41.1275 -1H37.5909V1H41.1275V-1ZM42.0704 0.5C42.0704 0.405579 42.0812 0.314044 42.1017 0.225619L40.1533 -0.225619C40.0989 0.0090663 40.0704 0.251955 40.0704 0.5H42.0704ZM43.9226 2C42.7718 2 42.0704 1.20871 42.0704 0.5H40.0704C40.0704 2.55272 41.9229 4 43.9226 4V2ZM45.7747 0.5C45.7747 1.20871 45.0733 2 43.9226 2V4C45.9222 4 47.7747 2.55271 47.7747 0.5H45.7747ZM45.7434 0.225619C45.7639 0.314044 45.7747 0.405579 45.7747 0.5H47.7747C47.7747 0.251955 47.7462 0.0090663 47.6918 -0.225619L45.7434 0.225619ZM50.2543 -1H46.7176V1H50.2543V-1ZM51.1972 0.5C51.1972 0.405579 51.208 0.314044 51.2285 0.225619L49.2801 -0.225619C49.2257 0.0090663 49.1972 0.251955 49.1972 0.5H51.1972ZM53.0494 2C51.8986 2 51.1972 1.20871 51.1972 0.5H49.1972C49.1972 2.55272 51.0498 4 53.0494 4V2ZM54.9015 0.5C54.9015 1.20871 54.2001 2 53.0494 2V4C55.049 4 56.9015 2.55271 56.9015 0.5H54.9015ZM54.8702 0.225619C54.8907 0.314044 54.9015 0.405579 54.9015 0.5H56.9015C56.9015 0.251955 56.873 0.0090663 56.8186 -0.225619L54.8702 0.225619ZM59.381 -1H55.8444V1H59.381V-1ZM60.3239 0.5C60.3239 0.405579 60.3347 0.314044 60.3552 0.225619L58.4068 -0.225619C58.3524 0.0090663 58.3239 0.251955 58.3239 0.5H60.3239ZM62.176 2C61.0253 2 60.3239 1.20871 60.3239 0.5H58.3239C58.3239 2.55272 60.1764 4 62.176 4V2ZM64.0282 0.5C64.0282 1.20871 63.3268 2 62.176 2V4C64.1757 4 66.0282 2.55271 66.0282 0.5H64.0282ZM63.9969 0.225619C64.0174 0.314044 64.0282 0.405579 64.0282 0.5H66.0282C66.0282 0.251955 65.9997 0.0090663 65.9453 -0.225619L63.9969 0.225619ZM68.5078 -1H64.9711V1H68.5078V-1ZM69.4507 0.5C69.4507 0.405579 69.4615 0.314044 69.482 0.225619L67.5336 -0.225619C67.4792 0.0090663 67.4507 0.251955 67.4507 0.5H69.4507ZM71.3029 2C70.1521 2 69.4507 1.20871 69.4507 0.5H67.4507C67.4507 2.55271 69.3032 4 71.3029 4V2ZM73.155 0.5C73.155 1.20871 72.4536 2 71.3029 2V4C73.3025 4 75.155 2.55271 75.155 0.5H73.155ZM73.1237 0.225619C73.1442 0.314044 73.155 0.405579 73.155 0.5H75.155C75.155 0.251955 75.1265 0.0090663 75.0721 -0.225619L73.1237 0.225619ZM77.6346 -1H74.0979V1H77.6346V-1ZM78.5776 0.5C78.5776 0.405579 78.5883 0.314044 78.6088 0.225619L76.6604 -0.225619C76.606 0.0090663 76.5776 0.251955 76.5776 0.5H78.5776ZM80.4297 2C79.2789 2 78.5776 1.20871 78.5776 0.5H76.5776C76.5776 2.55271 78.4301 4 80.4297 4V2ZM82.2818 0.5C82.2818 1.20871 81.5804 2 80.4297 2V4C82.4293 4 84.2818 2.55271 84.2818 0.5H82.2818ZM82.2505 0.225619C82.271 0.314044 82.2818 0.405579 82.2818 0.5H84.2818C84.2818 0.251955 84.2533 0.0090663 84.1989 -0.225619L82.2505 0.225619ZM86.7613 -1H83.2247V1H86.7613V-1ZM87.7042 0.5C87.7042 0.405579 87.715 0.314044 87.7355 0.225619L85.7871 -0.225619C85.7327 0.0090663 85.7042 0.251955 85.7042 0.5H87.7042ZM89.5564 2C88.4056 2 87.7042 1.20871 87.7042 0.5H85.7042C85.7042 2.55271 87.5567 4 89.5564 4V2ZM91.4085 0.5C91.4085 1.20871 90.7071 2 89.5564 2V4C91.556 4 93.4085 2.55271 93.4085 0.5H91.4085ZM91.3772 0.225619C91.3977 0.314044 91.4085 0.405579 91.4085 0.5H93.4085C93.4085 0.251955 93.38 0.0090663 93.3256 -0.225619L91.3772 0.225619ZM95.8881 -1H92.3514V1H95.8881V-1ZM96.831 0.5C96.831 0.405579 96.8418 0.314044 96.8623 0.225619L94.9139 -0.225619C94.8595 0.0090663 94.831 0.251955 94.831 0.5H96.831ZM98.6832 2C97.5324 2 96.831 1.20871 96.831 0.5H94.831C94.831 2.55271 96.6835 4 98.6832 4V2ZM100.535 0.5C100.535 1.20871 99.8339 2 98.6832 2V4C100.683 4 102.535 2.55271 102.535 0.5H100.535ZM100.504 0.225619C100.524 0.314044 100.535 0.405579 100.535 0.5H102.535C102.535 0.251955 102.507 0.0090663 102.452 -0.225619L100.504 0.225619ZM105.015 -1H101.478V1H105.015V-1ZM105.958 0.5C105.958 0.405579 105.969 0.314044 105.989 0.225619L104.041 -0.225619C103.986 0.0090663 103.958 0.251955 103.958 0.5H105.958ZM107.81 2C106.659 2 105.958 1.20871 105.958 0.5H103.958C103.958 2.55271 105.81 4 107.81 4V2ZM109.662 0.5C109.662 1.20871 108.961 2 107.81 2V4C109.81 4 111.662 2.55271 111.662 0.5H109.662ZM109.631 0.225619C109.651 0.314044 109.662 0.405579 109.662 0.5H111.662C111.662 0.251955 111.634 0.0090663 111.579 -0.225619L109.631 0.225619ZM114.142 -1H110.605V1H114.142V-1ZM115.085 0.5C115.085 0.405579 115.095 0.314044 115.116 0.225619L113.167 -0.225619C113.113 0.0090663 113.085 0.251955 113.085 0.5H115.085ZM116.937 2C115.786 2 115.085 1.20871 115.085 0.5H113.085C113.085 2.55271 114.937 4 116.937 4V2ZM118.789 0.5C118.789 1.20871 118.087 2 116.937 2V4C118.936 4 120.789 2.55271 120.789 0.5H118.789ZM118.757 0.225619C118.778 0.314044 118.789 0.405579 118.789 0.5H120.789C120.789 0.251955 120.76 0.0090663 120.706 -0.225619L118.757 0.225619ZM123.268 -1H119.732V1H123.268V-1ZM124.211 0.5C124.211 0.405579 124.222 0.314044 124.243 0.225619L122.294 -0.225619C122.24 0.0090663 122.211 0.251955 122.211 0.5H124.211ZM126.063 2C124.913 2 124.211 1.20871 124.211 0.5H122.211C122.211 2.55271 124.064 4 126.063 4V2ZM127.916 0.5C127.916 1.20871 127.214 2 126.063 2V4C128.063 4 129.916 2.55271 129.916 0.5H127.916ZM127.884 0.225619C127.905 0.314044 127.916 0.405579 127.916 0.5H129.916C129.916 0.251955 129.887 0.0090663 129.833 -0.225619L127.884 0.225619ZM132.395 -1H128.859V1H132.395V-1ZM133.338 0.5C133.338 0.405579 133.349 0.314044 133.369 0.225619L131.421 -0.225619C131.367 0.0090663 131.338 0.251955 131.338 0.5H133.338ZM135.19 2C134.039 2 133.338 1.20871 133.338 0.5H131.338C131.338 2.55271 133.191 4 135.19 4V2ZM137.042 0.5C137.042 1.20871 136.341 2 135.19 2V4C137.19 4 139.042 2.55272 139.042 0.5H137.042ZM137.011 0.225619C137.031 0.314044 137.042 0.405579 137.042 0.5H139.042C139.042 0.251955 139.014 0.0090663 138.959 -0.225619L137.011 0.225619ZM141.522 -1H137.985V1H141.522V-1ZM142.465 0.5C142.465 0.405579 142.476 0.314044 142.496 0.225619L140.548 -0.225619C140.493 0.0090663 140.465 0.251955 140.465 0.5H142.465ZM144.317 2C143.166 2 142.465 1.20871 142.465 0.5H140.465C140.465 2.55271 142.317 4 144.317 4V2ZM146.169 0.5C146.169 1.20871 145.468 2 144.317 2V4C146.317 4 148.169 2.55271 148.169 0.5H146.169ZM146.138 0.225619C146.158 0.314044 146.169 0.405579 146.169 0.5H148.169C148.169 0.251955 148.141 0.0090663 148.086 -0.225619L146.138 0.225619ZM150.649 -1H147.112V1H150.649V-1ZM151.592 0.5C151.592 0.405579 151.602 0.314044 151.623 0.225619L149.674 -0.225619C149.62 0.0090663 149.592 0.251955 149.592 0.5H151.592ZM153.444 2C152.293 2 151.592 1.20871 151.592 0.5H149.592C149.592 2.55271 151.444 4 153.444 4V2ZM155.296 0.5C155.296 1.20871 154.594 2 153.444 2V4C155.443 4 157.296 2.55271 157.296 0.5H155.296ZM155.265 0.225619C155.285 0.314044 155.296 0.405579 155.296 0.5H157.296C157.296 0.251955 157.267 0.0090663 157.213 -0.225619L155.265 0.225619ZM159.775 -1H156.239V1H159.775V-1ZM160.718 0.5C160.718 0.405579 160.729 0.314044 160.75 0.225619L158.801 -0.225619C158.747 0.0090663 158.718 0.251955 158.718 0.5H160.718ZM162.57 2C161.42 2 160.718 1.20871 160.718 0.5H158.718C158.718 2.55271 160.571 4 162.57 4V2ZM164.423 0.5C164.423 1.20871 163.721 2 162.57 2V4C164.57 4 166.423 2.55271 166.423 0.5H164.423ZM164.391 0.225619C164.412 0.314044 164.423 0.405579 164.423 0.5H166.423C166.423 0.251955 166.394 0.0090663 166.34 -0.225619L164.391 0.225619ZM168.902 -1H165.365V1H168.902V-1ZM169.845 0.5C169.845 0.405579 169.856 0.314044 169.876 0.225619L167.928 -0.225619C167.874 0.0090663 167.845 0.251955 167.845 0.5H169.845ZM171.697 2C170.547 2 169.845 1.20871 169.845 0.5H167.845C167.845 2.55271 169.698 4 171.697 4V2ZM173.549 0.5C173.549 1.20871 172.848 2 171.697 2V4C173.697 4 175.549 2.55271 175.549 0.5H173.549ZM173.518 0.225619C173.539 0.314044 173.549 0.405579 173.549 0.5H175.549C175.549 0.251955 175.521 0.0090663 175.467 -0.225619L173.518 0.225619ZM178.029 -1H174.492V1H178.029V-1ZM178.972 0.5C178.972 0.405579 178.983 0.314044 179.003 0.225619L177.055 -0.225619C177 0.0090663 176.972 0.251955 176.972 0.5H178.972ZM180.824 2C179.673 2 178.972 1.20871 178.972 0.5H176.972C176.972 2.55271 178.824 4 180.824 4V2ZM182.676 0.5C182.676 1.20871 181.975 2 180.824 2V4C182.824 4 184.676 2.55271 184.676 0.5H182.676ZM182.645 0.225619C182.665 0.314044 182.676 0.405579 182.676 0.5H184.676C184.676 0.251955 184.648 0.0090663 184.593 -0.225619L182.645 0.225619ZM187.156 -1H183.619V1H187.156V-1ZM188.099 0.5C188.099 0.405579 188.109 0.314044 188.13 0.225619L186.181 -0.225619C186.127 0.0090663 186.099 0.251955 186.099 0.5H188.099ZM189.951 2C188.8 2 188.099 1.20871 188.099 0.5H186.099C186.099 2.55271 187.951 4 189.951 4V2ZM191.803 0.5C191.803 1.20871 191.101 2 189.951 2V4C191.95 4 193.803 2.55271 193.803 0.5H191.803ZM191.772 0.225619C191.792 0.314044 191.803 0.405579 191.803 0.5H193.803C193.803 0.251955 193.774 0.0090663 193.72 -0.225619L191.772 0.225619ZM196.282 -1H192.746V1H196.282V-1ZM197.225 0.5C197.225 0.405579 197.236 0.314044 197.257 0.225619L195.308 -0.225619C195.254 0.0090663 195.225 0.251955 195.225 0.5H197.225ZM199.078 2C197.927 2 197.225 1.20871 197.225 0.5H195.225C195.225 2.55271 197.078 4 199.078 4V2ZM200.93 0.5C200.93 1.20871 200.228 2 199.078 2V4C201.077 4 202.93 2.55271 202.93 0.5H200.93ZM200.898 0.225619C200.919 0.314044 200.93 0.405579 200.93 0.5H202.93C202.93 0.251955 202.901 0.0090663 202.847 -0.225619L200.898 0.225619ZM205.409 -1H201.873V1H205.409V-1ZM206.352 0.5C206.352 0.405579 206.363 0.314044 206.383 0.225619L204.435 -0.225619C204.381 0.0090663 204.352 0.251955 204.352 0.5H206.352ZM208.204 2C207.053 2 206.352 1.20871 206.352 0.5H204.352C204.352 2.55271 206.205 4 208.204 4V2ZM210.056 0.5C210.056 1.20871 209.355 2 208.204 2V4C210.204 4 212.056 2.55271 212.056 0.5H210.056ZM210.025 0.225619C210.046 0.314044 210.056 0.405579 210.056 0.5H212.056C212.056 0.251955 212.028 0.0090663 211.973 -0.225619L210.025 0.225619ZM214.536 -1H210.999V1H214.536V-1ZM215.479 0.5C215.479 0.405579 215.49 0.314044 215.51 0.225619L213.562 -0.225619C213.507 0.0090663 213.479 0.251955 213.479 0.5H215.479ZM217.331 2C216.18 2 215.479 1.20871 215.479 0.5H213.479C213.479 2.55271 215.331 4 217.331 4V2ZM219.183 0.5C219.183 1.20871 218.482 2 217.331 2V4C219.331 4 221.183 2.55271 221.183 0.5H219.183ZM219.152 0.225619C219.172 0.314044 219.183 0.405579 219.183 0.5H221.183C221.183 0.251955 221.155 0.0090663 221.1 -0.225619L219.152 0.225619ZM223.663 -1H220.126V1H223.663V-1ZM224.606 0.5C224.606 0.405579 224.617 0.314044 224.637 0.225619L222.689 -0.225619C222.634 0.0090663 222.606 0.251955 222.606 0.5H224.606ZM226.458 2C225.307 2 224.606 1.20871 224.606 0.5H222.606C222.606 2.55271 224.458 4 226.458 4V2ZM228.31 0.5C228.31 1.20871 227.609 2 226.458 2V4C228.457 4 230.31 2.55271 230.31 0.5H228.31ZM228.279 0.225619C228.299 0.314044 228.31 0.405579 228.31 0.5H230.31C230.31 0.251955 230.281 0.0090663 230.227 -0.225619L228.279 0.225619ZM232.789 -1H229.253V1H232.789V-1ZM233.732 0.5C233.732 0.405579 233.743 0.314044 233.764 0.225619L231.815 -0.225619C231.761 0.0090663 231.732 0.251955 231.732 0.5H233.732ZM235.585 2C234.434 2 233.732 1.20871 233.732 0.5H231.732C231.732 2.55271 233.585 4 235.585 4V2ZM237.437 0.5C237.437 1.20871 236.735 2 235.585 2V4C237.584 4 239.437 2.55271 239.437 0.5H237.437ZM237.405 0.225619C237.426 0.314044 237.437 0.405579 237.437 0.5H239.437C239.437 0.251955 239.408 0.0090663 239.354 -0.225619L237.405 0.225619ZM243 -1H238.38V1H243V-1ZM244 479V0H242V479H244ZM238.38 480H243V478H238.38V480ZM239.354 479.226C239.408 478.991 239.437 478.748 239.437 478.5H237.437C237.437 478.594 237.426 478.686 237.405 478.774L239.354 479.226ZM239.437 478.5C239.437 476.447 237.584 475 235.585 475V477C236.735 477 237.437 477.791 237.437 478.5H239.437ZM235.585 475C233.585 475 231.732 476.447 231.732 478.5H233.732C233.732 477.791 234.434 477 235.585 477V475ZM231.732 478.5C231.732 478.748 231.761 478.991 231.815 479.226L233.764 478.774C233.743 478.686 233.732 478.594 233.732 478.5H231.732ZM229.253 480H232.789V478H229.253V480ZM228.31 478.5C228.31 478.594 228.299 478.686 228.279 478.774L230.227 479.226C230.281 478.991 230.31 478.748 230.31 478.5H228.31ZM226.458 477C227.609 477 228.31 477.791 228.31 478.5H230.31C230.31 476.447 228.457 475 226.458 475V477ZM224.606 478.5C224.606 477.791 225.307 477 226.458 477V475C224.458 475 222.606 476.447 222.606 478.5H224.606ZM224.637 478.774C224.617 478.686 224.606 478.594 224.606 478.5H222.606C222.606 478.748 222.634 478.991 222.689 479.226L224.637 478.774ZM220.126 480H223.663V478H220.126V480ZM221.1 479.226C221.155 478.991 221.183 478.748 221.183 478.5H219.183C219.183 478.594 219.172 478.686 219.152 478.774L221.1 479.226ZM221.183 478.5C221.183 476.447 219.331 475 217.331 475V477C218.482 477 219.183 477.791 219.183 478.5H221.183ZM217.331 475C215.331 475 213.479 476.447 213.479 478.5H215.479C215.479 477.791 216.18 477 217.331 477V475ZM213.479 478.5C213.479 478.748 213.507 478.991 213.562 479.226L215.51 478.774C215.49 478.686 215.479 478.594 215.479 478.5H213.479ZM210.999 480H214.536V478H210.999V480ZM210.056 478.5C210.056 478.594 210.046 478.686 210.025 478.774L211.973 479.226C212.028 478.991 212.056 478.748 212.056 478.5H210.056ZM208.204 477C209.355 477 210.056 477.791 210.056 478.5H212.056C212.056 476.447 210.204 475 208.204 475V477ZM206.352 478.5C206.352 477.791 207.053 477 208.204 477V475C206.205 475 204.352 476.447 204.352 478.5H206.352ZM206.383 478.774C206.363 478.686 206.352 478.594 206.352 478.5H204.352C204.352 478.748 204.381 478.991 204.435 479.226L206.383 478.774ZM201.873 480H205.409V478H201.873V480ZM202.847 479.226C202.901 478.991 202.93 478.748 202.93 478.5H200.93C200.93 478.594 200.919 478.686 200.898 478.774L202.847 479.226ZM202.93 478.5C202.93 476.447 201.077 475 199.078 475V477C200.228 477 200.93 477.791 200.93 478.5H202.93ZM199.078 475C197.078 475 195.225 476.447 195.225 478.5H197.225C197.225 477.791 197.927 477 199.078 477V475ZM195.225 478.5C195.225 478.748 195.254 478.991 195.308 479.226L197.257 478.774C197.236 478.686 197.225 478.594 197.225 478.5H195.225ZM192.746 480H196.282V478H192.746V480ZM191.803 478.5C191.803 478.594 191.792 478.686 191.772 478.774L193.72 479.226C193.774 478.991 193.803 478.748 193.803 478.5H191.803ZM189.951 477C191.101 477 191.803 477.791 191.803 478.5H193.803C193.803 476.447 191.95 475 189.951 475V477ZM188.099 478.5C188.099 477.791 188.8 477 189.951 477V475C187.951 475 186.099 476.447 186.099 478.5H188.099ZM188.13 478.774C188.109 478.686 188.099 478.594 188.099 478.5H186.099C186.099 478.748 186.127 478.991 186.181 479.226L188.13 478.774ZM183.619 480H187.156V478H183.619V480ZM184.593 479.226C184.648 478.991 184.676 478.748 184.676 478.5H182.676C182.676 478.594 182.665 478.686 182.645 478.774L184.593 479.226ZM184.676 478.5C184.676 476.447 182.824 475 180.824 475V477C181.975 477 182.676 477.791 182.676 478.5H184.676ZM180.824 475C178.824 475 176.972 476.447 176.972 478.5H178.972C178.972 477.791 179.673 477 180.824 477V475ZM176.972 478.5C176.972 478.748 177 478.991 177.055 479.226L179.003 478.774C178.983 478.686 178.972 478.594 178.972 478.5H176.972ZM174.492 480H178.029V478H174.492V480ZM173.549 478.5C173.549 478.594 173.539 478.686 173.518 478.774L175.467 479.226C175.521 478.991 175.549 478.748 175.549 478.5H173.549ZM171.697 477C172.848 477 173.549 477.791 173.549 478.5H175.549C175.549 476.447 173.697 475 171.697 475V477ZM169.845 478.5C169.845 477.791 170.547 477 171.697 477V475C169.698 475 167.845 476.447 167.845 478.5H169.845ZM169.876 478.774C169.856 478.686 169.845 478.594 169.845 478.5H167.845C167.845 478.748 167.874 478.991 167.928 479.226L169.876 478.774ZM165.365 480H168.902V478H165.365V480ZM166.34 479.226C166.394 478.991 166.423 478.748 166.423 478.5H164.423C164.423 478.594 164.412 478.686 164.391 478.774L166.34 479.226ZM166.423 478.5C166.423 476.447 164.57 475 162.57 475V477C163.721 477 164.423 477.791 164.423 478.5H166.423ZM162.57 475C160.571 475 158.718 476.447 158.718 478.5H160.718C160.718 477.791 161.42 477 162.57 477V475ZM158.718 478.5C158.718 478.748 158.747 478.991 158.801 479.226L160.75 478.774C160.729 478.686 160.718 478.594 160.718 478.5H158.718ZM156.239 480H159.775V478H156.239V480ZM155.296 478.5C155.296 478.594 155.285 478.686 155.265 478.774L157.213 479.226C157.267 478.991 157.296 478.748 157.296 478.5H155.296ZM153.444 477C154.594 477 155.296 477.791 155.296 478.5H157.296C157.296 476.447 155.443 475 153.444 475V477ZM151.592 478.5C151.592 477.791 152.293 477 153.444 477V475C151.444 475 149.592 476.447 149.592 478.5H151.592ZM151.623 478.774C151.602 478.686 151.592 478.594 151.592 478.5H149.592C149.592 478.748 149.62 478.991 149.674 479.226L151.623 478.774ZM147.112 480H150.649V478H147.112V480ZM148.086 479.226C148.141 478.991 148.169 478.748 148.169 478.5H146.169C146.169 478.594 146.158 478.686 146.138 478.774L148.086 479.226ZM148.169 478.5C148.169 476.447 146.317 475 144.317 475V477C145.468 477 146.169 477.791 146.169 478.5H148.169ZM144.317 475C142.317 475 140.465 476.447 140.465 478.5H142.465C142.465 477.791 143.166 477 144.317 477V475ZM140.465 478.5C140.465 478.748 140.493 478.991 140.548 479.226L142.496 478.774C142.476 478.686 142.465 478.594 142.465 478.5H140.465ZM137.985 480H141.522V478H137.985V480ZM137.042 478.5C137.042 478.594 137.031 478.686 137.011 478.774L138.959 479.226C139.014 478.991 139.042 478.748 139.042 478.5H137.042ZM135.19 477C136.341 477 137.042 477.791 137.042 478.5H139.042C139.042 476.447 137.19 475 135.19 475V477ZM133.338 478.5C133.338 477.791 134.039 477 135.19 477V475C133.191 475 131.338 476.447 131.338 478.5H133.338ZM133.369 478.774C133.349 478.686 133.338 478.594 133.338 478.5H131.338C131.338 478.748 131.367 478.991 131.421 479.226L133.369 478.774ZM128.859 480H132.395V478H128.859V480ZM129.833 479.226C129.887 478.991 129.916 478.748 129.916 478.5H127.916C127.916 478.594 127.905 478.686 127.884 478.774L129.833 479.226ZM129.916 478.5C129.916 476.447 128.063 475 126.063 475V477C127.214 477 127.916 477.791 127.916 478.5H129.916ZM126.063 475C124.064 475 122.211 476.447 122.211 478.5H124.211C124.211 477.791 124.913 477 126.063 477V475ZM122.211 478.5C122.211 478.748 122.24 478.991 122.294 479.226L124.243 478.774C124.222 478.686 124.211 478.594 124.211 478.5H122.211ZM119.732 480H123.268V478H119.732V480ZM118.789 478.5C118.789 478.594 118.778 478.686 118.757 478.774L120.706 479.226C120.76 478.991 120.789 478.748 120.789 478.5H118.789ZM116.937 477C118.087 477 118.789 477.791 118.789 478.5H120.789C120.789 476.447 118.936 475 116.937 475V477ZM115.085 478.5C115.085 477.791 115.786 477 116.937 477V475C114.937 475 113.085 476.447 113.085 478.5H115.085ZM115.116 478.774C115.095 478.686 115.085 478.594 115.085 478.5H113.085C113.085 478.748 113.113 478.991 113.167 479.226L115.116 478.774ZM110.605 480H114.142V478H110.605V480ZM111.579 479.226C111.634 478.991 111.662 478.748 111.662 478.5H109.662C109.662 478.594 109.651 478.686 109.631 478.774L111.579 479.226ZM111.662 478.5C111.662 476.447 109.81 475 107.81 475V477C108.961 477 109.662 477.791 109.662 478.5H111.662ZM107.81 475C105.81 475 103.958 476.447 103.958 478.5H105.958C105.958 477.791 106.659 477 107.81 477V475ZM103.958 478.5C103.958 478.748 103.986 478.991 104.041 479.226L105.989 478.774C105.969 478.686 105.958 478.594 105.958 478.5H103.958ZM101.478 480H105.015V478H101.478V480ZM100.535 478.5C100.535 478.594 100.524 478.686 100.504 478.774L102.452 479.226C102.507 478.991 102.535 478.748 102.535 478.5H100.535ZM98.6832 477C99.8339 477 100.535 477.791 100.535 478.5H102.535C102.535 476.447 100.683 475 98.6832 475V477ZM96.831 478.5C96.831 477.791 97.5324 477 98.6832 477V475C96.6835 475 94.831 476.447 94.831 478.5H96.831ZM96.8623 478.774C96.8418 478.686 96.831 478.594 96.831 478.5H94.831C94.831 478.748 94.8595 478.991 94.9139 479.226L96.8623 478.774ZM92.3514 480H95.8881V478H92.3514V480ZM93.3256 479.226C93.38 478.991 93.4085 478.748 93.4085 478.5H91.4085C91.4085 478.594 91.3977 478.686 91.3772 478.774L93.3256 479.226ZM93.4085 478.5C93.4085 476.447 91.556 475 89.5564 475V477C90.7071 477 91.4085 477.791 91.4085 478.5H93.4085ZM89.5564 475C87.5567 475 85.7042 476.447 85.7042 478.5H87.7042C87.7042 477.791 88.4056 477 89.5564 477V475ZM85.7042 478.5C85.7042 478.748 85.7327 478.991 85.7871 479.226L87.7355 478.774C87.715 478.686 87.7042 478.594 87.7042 478.5H85.7042ZM83.2247 480H86.7613V478H83.2247V480ZM82.2818 478.5C82.2818 478.594 82.271 478.686 82.2505 478.774L84.1989 479.226C84.2533 478.991 84.2818 478.748 84.2818 478.5H82.2818ZM80.4297 477C81.5804 477 82.2818 477.791 82.2818 478.5H84.2818C84.2818 476.447 82.4293 475 80.4297 475V477ZM78.5776 478.5C78.5776 477.791 79.2789 477 80.4297 477V475C78.4301 475 76.5776 476.447 76.5776 478.5H78.5776ZM78.6088 478.774C78.5883 478.686 78.5776 478.594 78.5776 478.5H76.5776C76.5776 478.748 76.606 478.991 76.6604 479.226L78.6088 478.774ZM74.0979 480H77.6346V478H74.0979V480ZM75.0721 479.226C75.1265 478.991 75.155 478.748 75.155 478.5H73.155C73.155 478.594 73.1442 478.686 73.1237 478.774L75.0721 479.226ZM75.155 478.5C75.155 476.447 73.3025 475 71.3029 475V477C72.4536 477 73.155 477.791 73.155 478.5H75.155ZM71.3029 475C69.3032 475 67.4507 476.447 67.4507 478.5H69.4507C69.4507 477.791 70.1521 477 71.3029 477V475ZM67.4507 478.5C67.4507 478.748 67.4792 478.991 67.5336 479.226L69.482 478.774C69.4615 478.686 69.4507 478.594 69.4507 478.5H67.4507ZM64.9711 480H68.5078V478H64.9711V480ZM64.0282 478.5C64.0282 478.594 64.0174 478.686 63.9969 478.774L65.9453 479.226C65.9997 478.991 66.0282 478.748 66.0282 478.5H64.0282ZM62.176 477C63.3268 477 64.0282 477.791 64.0282 478.5H66.0282C66.0282 476.447 64.1757 475 62.176 475V477ZM60.3239 478.5C60.3239 477.791 61.0253 477 62.176 477V475C60.1764 475 58.3239 476.447 58.3239 478.5H60.3239ZM60.3552 478.774C60.3347 478.686 60.3239 478.594 60.3239 478.5H58.3239C58.3239 478.748 58.3524 478.991 58.4068 479.226L60.3552 478.774ZM55.8444 480H59.381V478H55.8444V480ZM56.8186 479.226C56.873 478.991 56.9015 478.748 56.9015 478.5H54.9015C54.9015 478.594 54.8907 478.686 54.8702 478.774L56.8186 479.226ZM56.9015 478.5C56.9015 476.447 55.049 475 53.0494 475V477C54.2001 477 54.9015 477.791 54.9015 478.5H56.9015ZM53.0494 475C51.0498 475 49.1972 476.447 49.1972 478.5H51.1972C51.1972 477.791 51.8986 477 53.0494 477V475ZM49.1972 478.5C49.1972 478.748 49.2257 478.991 49.2801 479.226L51.2285 478.774C51.208 478.686 51.1972 478.594 51.1972 478.5H49.1972ZM46.7176 480H50.2543V478H46.7176V480ZM45.7747 478.5C45.7747 478.594 45.7639 478.686 45.7434 478.774L47.6918 479.226C47.7462 478.991 47.7747 478.748 47.7747 478.5H45.7747ZM43.9226 477C45.0733 477 45.7747 477.791 45.7747 478.5H47.7747C47.7747 476.447 45.9222 475 43.9226 475V477ZM42.0704 478.5C42.0704 477.791 42.7718 477 43.9226 477V475C41.9229 475 40.0704 476.447 40.0704 478.5H42.0704ZM42.1017 478.774C42.0812 478.686 42.0704 478.594 42.0704 478.5H40.0704C40.0704 478.748 40.0989 478.991 40.1533 479.226L42.1017 478.774ZM37.5909 480H41.1275V478H37.5909V480ZM38.5651 479.226C38.6195 478.991 38.648 478.748 38.648 478.5H36.648C36.648 478.594 36.6372 478.686 36.6167 478.774L38.5651 479.226ZM38.648 478.5C38.648 476.447 36.7955 475 34.7959 475V477C35.9466 477 36.648 477.791 36.648 478.5H38.648ZM34.7959 475C32.7963 475 30.9438 476.447 30.9438 478.5H32.9438C32.9438 477.791 33.6451 477 34.7959 477V475ZM30.9438 478.5C30.9438 478.748 30.9722 478.991 31.0266 479.226L32.975 478.774C32.9545 478.686 32.9438 478.594 32.9438 478.5H30.9438ZM28.4641 480H32.0008V478H28.4641V480ZM27.5212 478.5C27.5212 478.594 27.5104 478.686 27.4899 478.774L29.4383 479.226C29.4927 478.991 29.5212 478.748 29.5212 478.5H27.5212ZM25.6691 477C26.8198 477 27.5212 477.791 27.5212 478.5H29.5212C29.5212 476.447 27.6687 475 25.6691 475V477ZM23.8169 478.5C23.8169 477.791 24.5183 477 25.6691 477V475C23.6694 475 21.8169 476.447 21.8169 478.5H23.8169ZM23.8482 478.774C23.8277 478.686 23.8169 478.594 23.8169 478.5H21.8169C21.8169 478.748 21.8454 478.991 21.8998 479.226L23.8482 478.774ZM19.3373 480H22.874V478H19.3373V480ZM20.3115 479.226C20.3659 478.991 20.3944 478.748 20.3944 478.5H18.3944C18.3944 478.594 18.3836 478.686 18.3631 478.774L20.3115 479.226ZM20.3944 478.5C20.3944 476.447 18.5419 475 16.5422 475V477C17.693 477 18.3944 477.791 18.3944 478.5H20.3944ZM16.5422 475C14.5426 475 12.6901 476.447 12.6901 478.5H14.6901C14.6901 477.791 15.3915 477 16.5422 477V475ZM12.6901 478.5C12.6901 478.748 12.7186 478.991 12.773 479.226L14.7214 478.774C14.7009 478.686 14.6901 478.594 14.6901 478.5H12.6901ZM10.2106 480H13.7472V478H10.2106V480ZM11.1848 479.226C11.2391 478.991 11.2676 478.748 11.2676 478.5H9.26763C9.26763 478.594 9.25684 478.686 9.23636 478.774L11.1848 479.226ZM11.2676 478.5C11.2676 476.447 9.41513 475 7.41552 475V477C8.56626 477 9.26763 477.791 9.26763 478.5H11.2676ZM7.41552 475C5.41591 475 3.5634 476.447 3.5634 478.5H5.5634C5.5634 477.791 6.26477 477 7.41552 477V475ZM3.5634 478.5C3.5634 478.748 3.5919 478.991 3.64624 479.226L5.59468 478.774C5.57419 478.686 5.5634 478.594 5.5634 478.5H3.5634ZM0 480H4.62046V478H0V480ZM-1 0V479H1V0H-1ZM4.62046 -1H0V1H4.62046V-1ZM5.5634 0.5C5.5634 0.405587 5.57419 0.314047 5.59468 0.225608L3.64624 -0.225608C3.59189 0.00906268 3.5634 0.251948 3.5634 0.5H5.5634ZM7.41552 2C6.26477 2 5.5634 1.20871 5.5634 0.5H3.5634C3.5634 2.55272 5.41591 4 7.41552 4V2Z" fill="#CCD2D9" mask="url(#path-1-inside-1)"/>
</svg>
