<svg width="52" height="26" viewBox="0 0 52 26" fill="none" xmlns="http://www.w3.org/2000/svg">
<path d="M51 10.4117V3.86864C51 3.58167 50.8335 3.35209 50.5005 3.12251C50.445 3.12251 50.445 3.06511 50.3896 3.06511C50.0011 2.89293 42.2873 -0.780363 31.8542 2.95032C29.8564 3.63906 24.6953 5.07394 19.7008 2.95032C14.3732 0.711911 9.48966 0.826702 6.32644 1.34326C2.88575 1.85981 0.721436 2.95032 0.610446 2.95032C0.22198 3.1799 0 3.46688 0 3.75385L0.0554951 10.2969C0.0554951 10.5839 0.22198 10.8135 0.554951 11.043C0.721436 11.1004 0.887922 11.2152 1.05441 11.2726C1.66485 11.4448 2.38629 11.3874 2.88575 11.1578C3.16322 11.043 9.76714 7.8863 17.7584 11.2152C24.4733 14.0276 31.1328 12.1909 33.6855 11.2726C41.9543 8.34547 47.9478 11.1004 48.1698 11.2152C48.6692 11.4448 49.3906 11.5022 50.0011 11.33C50.667 11.1578 51.0555 10.8135 51 10.4117Z" fill="#CC5050"/>
<path d="M51 9.37951V2.83646C51 2.54949 50.8335 2.31991 50.5005 2.09033C50.445 2.09033 50.445 2.03293 50.3896 2.03293C50.0566 1.86075 42.3428 -1.81254 31.9097 1.91814C29.9119 2.60688 24.7508 4.04176 19.7563 1.91814C14.4287 -0.32027 9.54516 -0.205479 6.38194 0.311077C2.88575 0.827633 0.721436 1.91814 0.610446 1.97554C0.22198 2.14772 0 2.4347 0 2.77907L0.0554951 9.32211C0.0554951 9.60909 0.22198 9.83867 0.554951 10.0683C0.721436 10.1256 0.832426 10.2404 1.05441 10.2978C1.66485 10.4126 2.38629 10.3552 2.88575 10.1256C3.16322 10.0109 9.76714 6.85412 17.7584 10.183C24.4733 12.9954 31.1328 11.1588 33.6855 10.2404C41.9543 7.31328 47.9478 10.0683 48.1698 10.183C48.6692 10.4126 49.3906 10.47 50.0011 10.2978C50.6115 10.183 51 9.78127 51 9.37951Z" fill="#EA6060"/>
<path d="M51 4.32781C50.4451 4.09823 49.9456 3.92604 49.8346 3.92604C47.8368 3.12251 40.7334 0.884102 31.6877 4.09823C29.7454 4.78697 24.7508 6.16446 19.8672 4.09823C10.5996 0.19536 2.44178 3.2373 0.943417 3.92604C0.832427 3.92604 0.499456 4.09823 0 4.27042V7.14017C0.0554951 7.14017 0.11099 7.14017 0.166485 7.14017C1.1654 6.73841 3.05223 5.93487 3.27421 5.87748C4.88357 5.18874 10.7106 3.17991 17.5919 6.04966C24.6398 8.97682 31.7987 6.8532 33.852 6.10706C40.8444 3.63907 46.1719 5.30353 47.6703 5.87748C48.0588 6.04966 50.778 7.02538 50.889 7.08278C50.9445 7.08278 51 7.08278 51.0555 7.08278L51 4.32781Z" fill="#FFD3C5"/>
<path d="M51 23.7274L50.9445 17.1843C50.9445 16.8974 50.778 16.6678 50.445 16.4382C50.3896 16.4382 50.3895 16.3808 50.3341 16.3808C50.0011 16.2086 42.2873 12.5353 31.8542 16.266C29.8564 16.9547 24.6953 18.3896 19.7008 16.266C14.3732 14.0276 9.48966 14.1424 6.32644 14.6589C2.88575 15.1755 0.721436 16.266 0.610446 16.3234C0.22198 16.4956 0 16.7826 0 17.0695L0.0554951 23.6126C0.0554951 23.8996 0.22198 24.1291 0.554951 24.3587C0.721436 24.4161 0.887922 24.5309 1.05441 24.5883C1.66485 24.7605 2.38629 24.7031 2.88575 24.4161C3.16322 24.3013 9.76714 21.1446 17.7584 24.4735C24.4733 27.2859 31.1328 25.4492 33.6855 24.5309C41.9543 21.6038 47.9478 24.3587 48.1698 24.4735C48.6692 24.7031 49.3906 24.7605 50.0011 24.5883C50.667 24.4735 51.0555 24.1291 51 23.7274Z" fill="#CC5050"/>
<path d="M51 22.6943L50.9445 16.1512C50.9445 15.8642 50.778 15.6347 50.445 15.4051C50.3896 15.4051 50.3895 15.3477 50.3341 15.3477C50.0011 15.1755 42.2873 11.5022 31.8542 15.2329C29.8564 15.9216 24.6953 17.3565 19.7008 15.2329C14.3732 12.9945 9.48966 13.1093 6.32644 13.6258C2.88575 14.1424 0.721436 15.2329 0.610446 15.2903C0.22198 15.4625 0 15.7494 0 16.0938L0.0554951 22.6369C0.0554951 22.9238 0.22198 23.1534 0.554951 23.383C0.721436 23.4404 0.832426 23.5552 1.05441 23.6126C1.66485 23.7848 2.38629 23.7274 2.88575 23.4978C3.16322 23.383 9.76714 20.2263 17.7584 23.5552C24.4178 26.3102 31.1328 24.4735 33.6855 23.5552C41.9543 20.628 47.9478 23.383 48.1698 23.4978C48.6692 23.7274 49.3906 23.7848 50.0011 23.6126C50.6115 23.4978 51 23.096 51 22.6943Z" fill="#EA6060"/>
<path d="M51 17.6435C50.4451 17.4139 49.9456 17.2417 49.8346 17.2417C47.8368 16.4382 40.7334 14.1998 31.6877 17.4139C29.7454 18.1026 24.7508 19.4801 19.8673 17.4139C10.5996 13.511 2.4418 16.553 0.943433 17.2417C0.887938 17.2417 0.499472 17.4139 0.0555115 17.6435V20.5132C0.111007 20.5132 0.166502 20.5132 0.221997 20.5132C1.22091 20.1115 3.10774 19.3079 3.32972 19.2505C4.93908 18.5618 10.7661 16.553 17.592 19.4227C24.6398 22.3499 31.7987 20.2263 33.852 19.4801C40.8444 17.0121 46.1719 18.6766 47.6703 19.2505C48.0588 19.4227 50.778 20.3985 50.889 20.4558C50.9445 20.4558 51 20.4558 51.0555 20.4558L51 17.6435Z" fill="#FFD3C5"/>
</svg>
