<svg width="77" height="50" viewBox="0 0 77 50" fill="none" xmlns="http://www.w3.org/2000/svg">
<path d="M71.3469 23.2846L42.7638 6.52419C39.7726 4.78065 35.1749 4.55568 31.8513 5.84927C30.0787 5.34308 27.9184 5.06187 27.9184 5.06187V10.1237C27.9184 10.9674 28.3061 11.8673 29.0262 12.6547L6.75802 25.6468L0 25.928V31.3836C0 32.2272 0.553936 33.0146 1.60641 33.6333L27.9184 49.0439C30.0787 50.2812 33.5131 50.2812 35.6181 49.0439L63.0933 32.9584C66.4169 34.027 70.6822 33.802 73.5073 32.1147C75.1691 31.1024 76.0554 29.8088 76.0554 28.5152V23.0596L71.3469 23.2846Z" fill="#E8A956"/>
<path d="M73.4526 26.7154C76.8317 24.7469 76.8316 21.4848 73.3972 19.5163L42.7646 1.51856C39.3302 -0.506187 33.8462 -0.506187 30.4672 1.51856C27.6421 3.14961 27.199 5.68054 29.027 7.5928L1.60716 23.6783C-0.497797 24.9156 -0.497797 26.9404 1.60716 28.1777L27.9191 43.5883C30.0795 44.8256 33.5139 44.8256 35.6188 43.5883L63.094 27.5028C66.4177 28.6277 70.683 28.3465 73.4526 26.7154Z" fill="#FFD685"/>
</svg>
