<svg width="65" height="40" viewBox="0 0 65 40" fill="none" xmlns="http://www.w3.org/2000/svg">
<path d="M65 19.1465C65 19.0896 65 19.0896 65 19.0327V17.3257H63.0572L48.5696 8.73399C47.1264 9.58748 44.795 9.58748 43.3518 8.73399C41.9086 7.88051 41.9086 6.51493 43.2963 5.66145V4.12518L37.1349 2.01991C36.1913 1.45092 34.6371 1.45092 33.6934 2.01991L23.7575 6.40114L23.702 7.93741H23.7575C25.7558 9.13229 25.7558 11.01 23.7575 12.2048C21.7592 13.3997 18.5952 13.3428 16.5969 12.2048C16.5969 12.2048 16.5969 12.2048 16.5414 12.2048L1.60974 21.0242H0V22.5604V22.8449H0.0555081C0.166524 23.1294 0.388557 23.357 0.721605 23.5277L12.4338 30.4694C13.433 30.128 14.8207 30.1849 15.6533 30.697C15.8753 30.8108 16.4859 31.1522 16.0418 31.0953V32.6316L27.7541 39.5733C28.6977 40.1422 30.2519 40.1422 31.1956 39.5733L38.3006 35.3627V33.8265C35.9137 33.3144 35.3587 32.0626 37.1904 30.9815C39.0222 29.9004 41.9641 29.9004 43.7404 30.9815C44.0734 31.2091 44.351 31.4367 44.573 31.6643L46.6268 30.4125V28.8762C46.0162 28.99 46.1828 28.5917 46.8488 28.1935C47.9035 27.5676 49.5132 27.5676 50.6234 28.0797L64.1674 20.0569C64.7225 19.8293 64.9445 19.4879 65 19.1465Z" fill="#F7B000"/>
<path d="M50.7348 26.5434L64.2788 18.5206C65.2224 17.9516 65.2224 17.0413 64.2788 16.4723L48.57 7.19772C47.1268 8.05121 44.7955 8.05121 43.3522 7.19772C41.909 6.34424 41.909 4.97866 43.2967 4.12518L37.1353 0.426743C36.1917 -0.142248 34.6375 -0.142248 33.6938 0.426743L23.7024 6.34424H23.7579C25.7562 7.53912 25.7562 9.41679 23.7579 10.6117C21.7596 11.8065 18.5956 11.7496 16.5973 10.6117C16.5973 10.6117 16.5973 10.6117 16.5418 10.6117L0.722011 20C-0.221627 20.569 -0.221627 21.4794 0.722011 22.0484L12.4342 28.99C13.4334 28.6486 14.8211 28.7055 15.6537 29.2176C16.5418 29.7297 16.6528 30.5263 16.0978 31.1522L27.81 38.0939C28.7536 38.6629 30.3078 38.6629 31.2515 38.0939L38.3565 33.8834C37.968 33.7696 37.5794 33.5989 37.2464 33.4282C35.4146 32.3471 35.4146 30.5832 37.2464 29.559C39.0781 28.478 42.0201 28.478 43.7963 29.559C44.1294 29.7866 44.4069 30.0142 44.6289 30.2418L46.6827 28.99C45.7946 28.3073 45.9056 27.34 46.9048 26.7141C47.9594 26.0882 49.5692 26.0313 50.7348 26.5434Z" fill="#FFE000"/>
<path d="M48.6806 18.8051C47.3484 19.6017 45.1281 19.6017 43.7404 18.8051C42.3527 18.0085 42.3527 16.6999 43.7404 15.9033C45.0726 15.1067 47.2929 15.1067 48.6806 15.9033C50.0683 16.6999 50.0683 18.0085 48.6806 18.8051Z" fill="#FFF066"/>
<path d="M39.3553 15.3912C38.4671 15.9033 37.0794 15.9033 36.1913 15.3912C35.3032 14.8791 35.3032 14.0256 36.1913 13.5135C37.0794 13.0014 38.4671 13.0014 39.3553 13.5135C40.2434 14.0256 40.2434 14.8791 39.3553 15.3912Z" fill="#FFF066"/>
<path d="M28.5311 32.2333C27.4765 32.8592 25.8112 32.8592 24.7566 32.2333C23.7019 31.6074 23.7019 30.6401 24.7566 30.0142C25.8112 29.3883 27.4765 29.3883 28.5311 30.0142C29.5303 30.6401 29.5303 31.6643 28.5311 32.2333Z" fill="#FFF066"/>
<path d="M19.0948 21.3087C17.7626 22.1053 15.5422 22.1053 14.1545 21.3087C12.7668 20.5121 12.7668 19.2034 14.1545 18.4068C15.4867 17.6102 17.7071 17.6102 19.0948 18.4068C20.427 19.2034 20.427 20.5121 19.0948 21.3087Z" fill="#FFF066"/>
<path d="M48.7916 17.724C47.4594 18.5206 45.2391 18.5206 43.8514 17.724C42.4637 16.9274 42.4637 15.6188 43.8514 14.8222C45.1836 14.0256 47.4039 14.0256 48.7916 14.8222C50.1238 15.6188 50.1238 16.9274 48.7916 17.724Z" fill="#F7B000"/>
<path d="M39.4663 14.3101C38.5782 14.8222 37.1905 14.8222 36.3023 14.3101C35.4142 13.798 35.4142 12.9445 36.3023 12.4324C37.1905 11.9203 38.5782 11.9203 39.4663 12.4324C40.2989 12.9445 40.2989 13.798 39.4663 14.3101Z" fill="#F7B000"/>
<path d="M28.5867 31.2091C27.532 31.835 25.8668 31.835 24.8121 31.2091C23.7575 30.5832 23.7575 29.6159 24.8121 28.99C25.8668 28.3641 27.532 28.3641 28.5867 28.99C29.6413 29.6159 29.6413 30.5832 28.5867 31.2091Z" fill="#F7B000"/>
<path d="M19.1503 20.2845C17.8181 21.0811 15.5978 21.0811 14.2101 20.2845C12.8224 19.4879 12.8224 18.1792 14.2101 17.3826C15.5423 16.5861 17.7626 16.5861 19.1503 17.3826C20.4825 18.1792 20.538 19.4879 19.1503 20.2845Z" fill="#F7B000"/>
</svg>
