<svg width="64" height="38" viewBox="0 0 64 38" fill="none" xmlns="http://www.w3.org/2000/svg">
<path d="M30.7076 10.3175C34.2419 12.3472 39.908 12.3472 43.4423 10.3175C46.9205 8.28784 46.9205 4.96143 43.3862 2.93176C39.8519 0.902082 34.1858 0.902082 30.6515 2.93176C27.1173 4.96143 27.1734 8.28784 30.7076 10.3175Z" fill="#6A7F12"/>
<path d="M60.3844 12.8546C56.8501 10.8249 51.184 10.8249 47.6497 12.8546C44.1715 14.8843 44.1715 18.2107 47.7058 20.2404C51.2401 22.27 56.9062 22.27 60.4405 20.2404C63.9187 18.1543 63.8626 14.8843 60.3844 12.8546Z" fill="#6A7F12"/>
<path d="M16.6827 18.4362C20.217 20.4659 25.8831 20.4659 29.4173 18.4362C32.8955 16.4065 32.8955 13.0801 29.3612 11.0505C25.827 9.02078 20.1609 9.02078 16.6266 11.0505C13.1484 13.0801 13.1484 16.4065 16.6827 18.4362Z" fill="#6A7F12"/>
<path d="M46.3594 20.9733C42.8252 18.9436 37.1591 18.9436 33.6248 20.9733C30.1466 23.003 30.1466 26.3294 33.6809 28.3591C37.2152 30.3887 42.8813 30.3887 46.4155 28.3591C49.8937 26.3294 49.8937 23.003 46.3594 20.9733Z" fill="#6A7F12"/>
<path d="M15.3363 19.2255C11.802 17.1958 6.13595 17.1958 2.60167 19.2255C-0.876516 21.2552 -0.876516 24.5816 2.65777 26.6113C6.19205 28.6409 11.8581 28.6409 15.3924 26.6113C18.9267 24.5816 18.8706 21.2552 15.3363 19.2255Z" fill="#6A7F12"/>
<path d="M32.3345 29.092C28.8002 27.0623 23.1341 27.0623 19.5999 29.092C16.1217 31.1217 16.1217 34.4481 19.656 36.4777C23.1902 38.5074 28.8563 38.5074 32.3906 36.4777C35.8688 34.4481 35.8688 31.1217 32.3345 29.092Z" fill="#6A7F12"/>
<path d="M43.3862 8.90801C39.908 10.9377 34.1858 10.9377 30.6515 8.90801C27.1172 6.87834 27.1172 3.55193 30.5954 1.52225C34.0736 -0.507418 39.7958 -0.507418 43.33 1.52225C46.8643 3.60831 46.9204 6.87834 43.3862 8.90801Z" fill="#88A020"/>
<path opacity="0.7" d="M40.5251 7.78041C40.4129 7.72403 40.3007 7.66765 40.1885 7.61127C39.1787 7.04747 38.5616 6.4273 38.8421 6.25816C39.1226 6.08902 40.1324 6.48368 41.1422 7.04747C41.2544 7.10385 41.3666 7.16023 41.4227 7.21661C42.9935 6.9911 44.1716 6.20178 44.1716 5.24332C44.1716 4.28486 42.9935 3.43917 41.4227 3.21365C41.3105 3.27003 41.2544 3.32641 41.1422 3.38279C40.1324 3.94658 39.1226 4.34124 38.8421 4.1721C38.5616 4.00296 39.1787 3.43917 40.1885 2.81899C40.2446 2.81899 40.3568 2.76261 40.4129 2.70623C40.0202 1.80415 38.6177 1.12759 36.9347 1.12759C35.2517 1.12759 33.8492 1.80415 33.5126 2.70623C33.6248 2.76261 33.737 2.81899 33.8492 2.87537C34.859 3.43917 35.4761 4.05934 35.1956 4.22848C34.9151 4.39762 33.9053 4.00296 32.8955 3.43917C32.7833 3.38279 32.6711 3.32641 32.615 3.27003C31.0442 3.49555 29.8661 4.28486 29.8661 5.24332C29.8661 6.20178 31.0442 7.04747 32.615 7.27299C32.7272 7.21661 32.7833 7.16023 32.8955 7.10386C33.9053 6.54006 34.9151 6.1454 35.1956 6.31454C35.4761 6.48368 34.859 7.04747 33.8492 7.61127C33.737 7.66765 33.6809 7.72403 33.5687 7.78041C33.9614 8.68249 35.3639 9.35905 37.0469 9.41543C38.7299 9.35905 40.1324 8.68249 40.5251 7.78041Z" fill="#AEC628"/>
<path d="M37.7762 5.69437C37.3274 5.91989 36.6542 5.91989 36.2054 5.69437C35.7566 5.46885 35.7566 5.01781 36.2054 4.79229C36.6542 4.56677 37.3274 4.56677 37.7762 4.79229C38.225 5.01781 38.225 5.41247 37.7762 5.69437Z" fill="#88A020"/>
<path d="M60.3844 18.7745C56.9062 20.8042 51.1841 20.8042 47.6498 18.7745C44.1155 16.7448 44.1155 13.4184 47.5937 11.3887C51.0719 9.35905 56.794 9.35905 60.3283 11.3887C63.8626 13.4184 63.9187 16.7448 60.3844 18.7745Z" fill="#88A020"/>
<path opacity="0.7" d="M57.5233 17.6469C57.4111 17.5905 57.2989 17.5341 57.1867 17.4777C56.1769 16.9139 55.5598 16.2938 55.8403 16.1246C56.1208 15.9555 57.1306 16.3501 58.1404 16.9139C58.2526 16.9703 58.3648 17.0267 58.4209 17.0831C59.9917 16.8576 61.1698 16.0682 61.1698 15.1098C61.1698 14.1513 59.9917 13.3056 58.4209 13.0801C58.3087 13.1365 58.2526 13.1929 58.1404 13.2493C57.1306 13.8131 56.1208 14.2077 55.8403 14.0386C55.5598 13.8694 56.1769 13.3056 57.1867 12.6855C57.2989 12.6291 57.355 12.5727 57.4672 12.5163C57.0745 11.6142 55.672 10.9377 53.989 10.8813C52.306 10.8813 50.9035 11.5579 50.5669 12.4599C50.6791 12.5163 50.7913 12.5727 50.9035 12.6291C51.9133 13.1929 52.5304 13.8131 52.2499 13.9822C51.9694 14.1513 50.9596 13.7567 49.9498 13.1929C49.8376 13.1365 49.7254 13.0801 49.6693 13.0237C48.0985 13.2493 46.9204 14.0386 46.9204 14.997C46.9204 15.9555 48.0985 16.8012 49.6693 17.0267C49.7815 16.9703 49.8376 16.9139 49.9498 16.8576C50.9596 16.2938 51.9694 15.9555 52.2499 16.0682C52.5304 16.2374 51.9133 16.8012 50.9035 17.4214C50.7913 17.4777 50.7352 17.5341 50.623 17.5905C51.0157 18.4926 52.4182 19.1691 54.1012 19.1691C55.7281 19.2255 57.1306 18.549 57.5233 17.6469Z" fill="#AEC628"/>
<path d="M54.7744 15.5044C54.3256 15.73 53.6524 15.73 53.2036 15.5044C52.7548 15.2789 52.7548 14.8279 53.2036 14.6024C53.6524 14.3768 54.3256 14.3768 54.7744 14.6024C55.2232 14.8843 55.2232 15.2789 54.7744 15.5044Z" fill="#88A020"/>
<path d="M29.4173 17.0267C25.9392 19.0564 20.217 19.0564 16.6827 17.0267C13.1484 14.997 13.1484 11.6706 16.6266 9.64095C20.1048 7.61128 25.827 7.61128 29.3612 9.64095C32.8955 11.727 32.8955 14.997 29.4173 17.0267Z" fill="#88A020"/>
<path opacity="0.7" d="M26.5002 15.8991C26.388 15.8427 26.2758 15.7864 26.1636 15.73C25.1538 15.1662 24.5367 14.546 24.8172 14.3769C25.0977 14.2077 26.1075 14.6024 27.1173 15.1662C27.2295 15.2226 27.3417 15.2789 27.3978 15.3353C28.9686 15.1098 30.1467 14.3205 30.1467 13.362C30.1467 12.4036 28.9686 11.5579 27.3978 11.3323C27.2856 11.3887 27.2295 11.4451 27.1173 11.5015C26.1075 12.0653 25.0977 12.4599 24.8172 12.2908C24.5367 12.1217 25.1538 11.5579 26.1636 10.9377C26.2758 10.8813 26.3319 10.8249 26.4441 10.7685C26.0514 9.86647 24.6489 9.18991 22.9659 9.18991C21.2829 9.18991 19.8804 9.86647 19.5438 10.7685C19.656 10.8249 19.7682 10.8813 19.8804 10.9377C20.8902 11.5015 21.5073 12.1217 21.2268 12.2908C20.9463 12.4599 19.9365 12.0653 18.9267 11.5015C18.8145 11.4451 18.7023 11.3887 18.6462 11.3323C17.0754 11.5579 15.8973 12.3472 15.8973 13.3056C15.8973 14.2641 17.0754 15.1098 18.6462 15.3353C18.7584 15.2789 18.8145 15.2226 18.9267 15.1662C19.9365 14.6024 20.9463 14.2077 21.2268 14.3769C21.5073 14.546 20.8902 15.1098 19.8804 15.6736C19.7682 15.73 19.7121 15.7864 19.5999 15.8427C19.9926 16.7448 21.3951 17.4214 23.0781 17.4214C24.7611 17.4777 26.1075 16.8012 26.5002 15.8991Z" fill="#AEC628"/>
<path d="M23.8074 13.8131C23.3586 14.0386 22.6854 14.0386 22.2366 13.8131C21.7878 13.5875 21.7878 13.1365 22.2366 12.911C22.6854 12.6855 23.3586 12.6855 23.8074 12.911C24.2001 13.1365 24.2001 13.5312 23.8074 13.8131Z" fill="#88A020"/>
<path d="M46.4155 26.8932C42.9374 28.9229 37.2152 28.9229 33.6809 26.8932C30.1466 24.8635 30.1466 21.5371 33.6248 19.5074C37.103 17.4778 42.8252 17.4778 46.3594 19.5074C49.8937 21.5935 49.8937 24.8635 46.4155 26.8932Z" fill="#88A020"/>
<path opacity="0.7" d="M43.4984 25.7656C43.3862 25.7092 43.274 25.6528 43.1618 25.5965C42.152 25.0327 41.5349 24.4125 41.8154 24.2433C42.0959 24.0742 43.1057 24.4689 44.1155 25.0327C44.2277 25.089 44.3399 25.1454 44.396 25.2018C45.9668 24.9763 47.1449 24.187 47.1449 23.2285C47.1449 22.27 45.9668 21.4243 44.396 21.1988C44.2838 21.2552 44.2277 21.3116 44.1155 21.368C43.1057 21.9318 42.0959 22.3264 41.8154 22.1573C41.5349 22.0445 42.152 21.4243 43.1618 20.8606C43.274 20.8042 43.3301 20.7478 43.4423 20.6914C43.0496 19.7893 41.6471 19.1128 39.9641 19.0564C38.2811 19.0564 36.8786 19.733 36.542 20.635C36.6542 20.6914 36.7664 20.7478 36.8786 20.8042C37.8884 21.368 38.5055 21.9881 38.225 22.1573C37.9445 22.3264 36.9347 21.9318 35.9249 21.368C35.8127 21.3116 35.7005 21.2552 35.6444 21.1988C34.0736 21.4243 32.8955 22.2137 32.8955 23.1721C32.8955 24.1306 34.0736 24.9763 35.6444 25.2018C35.7566 25.1454 35.8127 25.089 35.9249 25.0327C36.9347 24.4689 37.9445 24.0742 38.225 24.2433C38.5055 24.4125 37.8884 24.9763 36.8786 25.5965C36.7664 25.6528 36.7103 25.7092 36.5981 25.7656C36.9908 26.6677 38.3933 27.3442 40.0763 27.3442C41.7593 27.3442 43.1057 26.6677 43.4984 25.7656Z" fill="#AEC628"/>
<path d="M40.8055 23.6795C40.3568 23.905 39.6836 23.905 39.2348 23.6795C38.786 23.454 38.786 23.003 39.2348 22.7774C39.6836 22.5519 40.3568 22.5519 40.8055 22.7774C41.1982 23.003 41.1982 23.3976 40.8055 23.6795Z" fill="#88A020"/>
<path d="M15.3924 25.1454C11.9142 27.1751 6.19205 27.1751 2.65777 25.1454C-0.876516 23.1157 -0.876516 19.7893 2.60167 17.7596C6.07985 15.73 11.802 15.73 15.3363 17.7596C18.8706 19.8457 18.9267 23.1157 15.3924 25.1454Z" fill="#88A020"/>
<path opacity="0.7" d="M12.4752 24.0178C12.363 23.9614 12.2508 23.905 12.1386 23.8487C11.1288 23.2849 10.5117 22.6647 10.7922 22.4955C11.0727 22.3264 12.0825 22.7211 13.0923 23.2849C13.2045 23.3412 13.3167 23.3976 13.3728 23.454C14.9436 23.2285 16.1217 22.4392 16.1217 21.4807C16.1217 20.5222 14.9436 19.6765 13.3728 19.451C13.2606 19.5074 13.2045 19.5638 13.0923 19.6202C12.0825 20.184 11.0727 20.5786 10.7922 20.4095C10.5117 20.2403 11.1288 19.6765 12.1386 19.0564C12.2508 19 12.3069 18.9436 12.4191 18.8872C12.0825 18.0415 10.68 17.365 8.997 17.365C7.31401 17.365 5.91152 18.0415 5.57492 18.9436C5.68712 19 5.79932 19.0564 5.91152 19.1128C6.92131 19.6765 7.53841 20.2967 7.25791 20.4659C6.97741 20.635 5.96762 20.2403 4.95782 19.6765C4.84562 19.6202 4.73342 19.5638 4.67732 19.5074C3.10653 19.7329 1.92844 20.5222 1.92844 21.4807C1.92844 22.4392 3.10653 23.2849 4.67732 23.5104C4.78952 23.454 4.84562 23.3976 4.95782 23.3412C5.96762 22.7774 6.97741 22.3828 7.25791 22.5519C7.53841 22.7211 6.92131 23.2849 5.91152 23.8487C5.79932 23.905 5.74322 23.9614 5.63102 24.0178C6.02372 24.9199 7.42621 25.5964 9.1092 25.5964C10.7361 25.5964 12.1386 24.9199 12.4752 24.0178Z" fill="#AEC628"/>
<path d="M9.78242 21.9318C9.33362 22.1573 8.66043 22.1573 8.21163 21.9318C7.76283 21.7062 7.76283 21.2552 8.21163 21.0297C8.66043 20.8042 9.33362 20.8042 9.78242 21.0297C10.2312 21.2552 10.2312 21.6499 9.78242 21.9318Z" fill="#88A020"/>
<path d="M32.3906 35.0119C28.9124 37.0415 23.1902 37.0415 19.656 35.0119C16.1217 32.9822 16.1217 29.6558 19.5999 27.6261C23.078 25.5964 28.8002 25.5964 32.3345 27.6261C35.8688 29.7122 35.8688 32.9822 32.3906 35.0119Z" fill="#88A020"/>
<path opacity="0.7" d="M29.4734 33.8843C29.3612 33.8279 29.249 33.7715 29.1368 33.7151C28.127 33.1513 27.5099 32.5311 27.7904 32.362C28.0709 32.1929 29.0807 32.5875 30.0905 33.1513C30.2027 33.2077 30.3149 33.2641 30.371 33.3205C31.9418 33.0949 33.1199 32.3056 33.1199 31.3472C33.1199 30.3887 31.9418 29.543 30.371 29.3175C30.2588 29.3739 30.2027 29.4303 30.0905 29.4866C29.0807 30.0504 28.0709 30.4451 27.7904 30.276C27.5099 30.1068 28.127 29.543 29.1368 28.9228C29.249 28.8665 29.3051 28.8101 29.4173 28.7537C29.0246 27.8516 27.6221 27.1751 25.9391 27.1187C24.2561 27.1187 22.8537 27.7952 22.5171 28.6973C22.6293 28.7537 22.7415 28.8101 22.8537 28.8665C23.8635 29.4303 24.4805 30.0504 24.2 30.2196C23.9195 30.3887 22.9098 29.9941 21.9 29.4303C21.7878 29.3739 21.6756 29.3175 21.6195 29.2611C20.0487 29.4866 18.8706 30.276 18.8706 31.2344C18.8706 32.1929 20.0487 33.0386 21.6195 33.2641C21.7317 33.2077 21.7878 33.1513 21.9 33.0949C22.9098 32.5311 23.9195 32.1365 24.2 32.3056C24.4805 32.4748 23.8635 33.0386 22.8537 33.6587C22.7415 33.7151 22.6854 33.7715 22.5732 33.8279C22.9659 34.73 24.3683 35.4065 26.0513 35.4065C27.7343 35.4629 29.1368 34.7863 29.4734 33.8843Z" fill="#AEC628"/>
<path d="M26.7806 31.7982C26.3318 32.0237 25.6586 32.0237 25.2098 31.7982C24.761 31.5727 24.761 31.1216 25.2098 30.8961C25.6586 30.6706 26.3318 30.6706 26.7806 30.8961C27.2294 31.1216 27.2294 31.5163 26.7806 31.7982Z" fill="#88A020"/>
</svg>
