<svg width="46" height="29" viewBox="0 0 46 29" fill="none" xmlns="http://www.w3.org/2000/svg">
<path d="M46 14.6401C46 22.0437 35.6906 28.0557 23.028 28.0557C10.3654 28.0557 0 22.0437 0 14.6401C0 7.23657 10.3094 1.22464 22.972 1.22464C35.6346 1.22464 46 7.23657 46 14.6401Z" fill="#CEC3BC"/>
<path d="M46 13.4155C46 20.8191 35.6906 26.831 23.028 26.831C10.3654 26.831 0 20.8191 0 13.4155C0 6.01193 10.3094 0 22.972 0C35.6346 0 46 6.01193 46 13.4155Z" fill="#F2F1ED"/>
<path d="M31.1523 16.6441C26.8941 19.0934 19.8904 19.0934 15.5761 16.6441C12.5506 14.9185 12.2704 12.6362 12.8307 10.2425C13.1669 8.79522 16.0804 4.67593 23.028 4.67593C30.4239 4.67593 33.2814 8.51689 33.8417 10.4095C34.5701 12.6918 34.1218 14.9185 31.1523 16.6441Z" fill="#F7B000"/>
<path d="M12.7747 10.7435C12.3825 12.9702 12.8307 14.9741 15.6322 16.5885C19.9464 19.0378 26.894 19.0934 31.2083 16.5885C33.9537 15.0298 34.514 12.9702 34.0658 10.7992C34.0658 11.9682 31.7125 15.5308 23.4202 15.5308C14.7917 15.5865 12.7747 11.9682 12.7747 10.7435Z" fill="#E28C10"/>
<path d="M22.972 8.90657C24.4573 8.90657 25.6614 8.20874 25.6614 7.34792C25.6614 6.48711 24.4573 5.78928 22.972 5.78928C21.4867 5.78928 20.2826 6.48711 20.2826 7.34792C20.2826 8.20874 21.4867 8.90657 22.972 8.90657Z" fill="#FACD18"/>
<path d="M25.6614 23.4911C25.6614 24.3817 24.4848 25.0497 22.972 25.0497C21.5152 25.0497 20.2826 24.326 20.2826 23.4911C20.2826 22.6004 21.4592 21.9324 22.972 21.9324C24.4848 21.9324 25.6614 22.6004 25.6614 23.4911Z" fill="white"/>
</svg>
