<svg width="65" height="41" viewBox="0 0 65 41" fill="none" xmlns="http://www.w3.org/2000/svg">
<path d="M65 19.0896V17.5533L63.5568 17.6102L37.1349 2.01991C36.1913 1.45092 34.6371 1.45092 33.6934 2.01991L1.77626 20.9104L0 21.0242V22.5605C0 22.9018 0.222032 23.3001 0.721605 23.5846L27.8651 39.6302C28.8087 40.1991 30.3629 40.1991 31.3066 39.6302L64.3339 20.1138C64.778 19.7724 65 19.431 65 19.0896Z" fill="#CC5050"/>
<path d="M64.2788 18.5206C65.2224 17.9516 65.2224 17.0413 64.2788 16.4723L37.1353 0.426743C36.1917 -0.142248 34.6375 -0.142248 33.6938 0.426743L0.722011 20C-0.221627 20.569 -0.221627 21.4794 0.722011 22.0484L27.8655 38.0939C28.8091 38.6629 30.3633 38.6629 31.307 38.0939L64.2788 18.5206Z" fill="#ED7474"/>
<path d="M39.3553 7.82362L35.2477 5.37696C34.8591 5.14936 34.8591 4.80797 35.2477 4.58037C35.5807 4.35278 36.1913 4.35278 36.5243 4.58037L40.6319 6.97013C41.0205 7.19773 41.0205 7.53912 40.6319 7.76672C40.2989 7.99431 39.7438 7.99431 39.3553 7.82362Z" fill="#DD5E5E"/>
<path d="M38.245 12.2617L35.0811 10.3841C34.6925 10.1565 34.6925 9.81507 35.0811 9.58748C35.4141 9.35988 36.0247 9.35988 36.3578 9.58748L39.5217 11.4651C39.9103 11.6927 39.9103 12.0341 39.5217 12.2617C39.1887 12.4893 38.5781 12.4893 38.245 12.2617Z" fill="#DD5E5E"/>
<path d="M39.4107 28.1366L35.3031 25.6899C34.9146 25.4623 34.9146 25.1209 35.3031 24.8933C35.6362 24.6657 36.2468 24.6657 36.5798 24.8933L40.6874 27.34C41.076 27.5676 41.076 27.909 40.6874 28.1366C40.3544 28.3642 39.7993 28.3642 39.4107 28.1366Z" fill="#DD5E5E"/>
<path d="M20.5935 27.5107L16.4859 25.064C16.0973 24.8364 16.0973 24.495 16.4859 24.2674C16.8189 24.0398 17.4295 24.0398 17.7626 24.2674L21.8702 26.6572C22.2587 26.8848 22.2587 27.2262 21.8702 27.4538C21.5371 27.7383 20.982 27.7383 20.5935 27.5107Z" fill="#DD5E5E"/>
<path d="M18.3731 22.1053L16.3193 20.9104C15.9863 20.6828 15.9308 20.3414 16.3193 20.1138C16.6524 19.8862 17.263 19.8862 17.596 20.1138L19.6498 21.3087C20.0384 21.5363 20.0384 21.8777 19.6498 22.1053C19.3168 22.3329 18.7617 22.3329 18.3731 22.1053Z" fill="#DD5E5E"/>
</svg>
