<svg width="59" height="35" viewBox="0 0 59 35" fill="none" xmlns="http://www.w3.org/2000/svg">
<path d="M41.2375 31.2601C32.6658 36.2282 18.6394 36.2282 10.0121 31.2043L6.50546 29.1947C-2.1219 24.1708 -2.17756 16.0767 6.39414 11.1086L17.7489 4.52166C26.3762 -0.446439 40.347 -0.390618 48.9743 4.57748L52.4809 6.58705C61.1083 11.611 61.1639 19.7051 52.5923 24.6732L41.2375 31.2601Z" fill="#7DA51B"/>
<path d="M41.2384 30.4228C32.6668 35.3909 18.6403 35.3909 10.013 30.3669L6.50637 28.3574C-2.12098 23.3335 -2.17664 15.2394 6.39505 10.2712L17.7498 3.74015C26.3771 -1.28378 40.3479 -1.22795 48.9752 3.79597L52.4818 5.80554C61.1092 10.8295 61.1649 18.9236 52.5932 23.8917L41.2384 30.4228Z" fill="#8EBA22"/>
<path d="M39.1781 26.3478C39.1781 25.9013 38.5658 25.5663 37.7866 25.5663L18.2498 25.5105L29.3262 19.091L45.6347 19.1469C46.4139 19.1469 47.0262 18.8119 47.0262 18.3654C47.0262 17.9188 46.4139 17.5839 45.6347 17.5839H32.0535L45.0781 9.99216C45.6347 9.65723 45.6347 9.15484 45.0781 8.87574C44.5215 8.54081 43.6309 8.54081 43.13 8.87574L30.0498 16.3558V8.54081C30.0498 8.09424 29.4375 7.75931 28.6583 7.75931C27.879 7.75931 27.2668 8.09424 27.2668 8.54081L27.3224 18.0304L16.246 24.3941L16.1903 13.0623C16.1903 12.6158 15.5781 12.2808 14.7988 12.2808C14.0196 12.2808 13.4073 12.6158 13.4073 13.0623L13.463 25.9571L5.44788 30.6461C5.22524 30.4786 4.61298 30.5344 4.61298 30.5344V31.4276V31.4834C4.61298 31.6509 4.77996 31.8741 5.0026 32.0416C5.5592 32.3765 6.44977 32.3765 6.95071 32.0416L15.4111 27.1293L37.7309 27.1851C38.5658 27.1851 39.1781 26.7944 39.1781 26.3478Z" fill="#7DA51B"/>
<path d="M5.0026 31.2601C4.44599 30.9252 4.44599 30.4228 5.0026 30.1437L43.0743 8.09423C43.6309 7.7593 44.4658 7.7593 45.0224 8.09423C45.579 8.42916 45.579 8.93155 45.0224 9.21066L6.95071 31.2601C6.44977 31.595 5.5592 31.595 5.0026 31.2601Z" fill="#B1D351"/>
<path d="M27.7121 18.0863C27.4338 17.9188 27.3224 17.7513 27.3224 17.528L27.2668 7.7593C27.2668 7.31273 27.879 6.9778 28.6583 6.9778C29.4375 6.9778 30.0498 7.31273 30.0498 7.7593L30.1055 17.528C30.1055 17.9746 29.4932 18.3095 28.714 18.3095C28.3243 18.3654 27.9904 18.2537 27.7121 18.0863Z" fill="#B1D351"/>
<path d="M13.9083 26.1245C13.63 25.9571 13.5187 25.7896 13.5187 25.5663L13.4073 12.2808C13.4073 11.8343 14.0196 11.4993 14.7989 11.4993C15.5781 11.4993 16.1904 11.8343 16.1904 12.2808L16.246 25.5105C16.246 25.9571 15.6338 26.292 14.8545 26.292C14.5206 26.3478 14.1309 26.2362 13.9083 26.1245Z" fill="#B1D351"/>
<path d="M27.7121 18.0863C27.4338 17.9188 27.3224 17.7513 27.3224 17.5281C27.3224 17.0815 27.9347 16.7466 28.714 16.7466H45.6347C46.414 16.7466 47.0262 17.0815 47.0262 17.5281C47.0262 17.9746 46.414 18.3096 45.6347 18.3096L28.714 18.2537C28.3243 18.3654 27.9904 18.2537 27.7121 18.0863Z" fill="#B1D351"/>
<path d="M13.9083 26.1245C13.63 25.9571 13.5187 25.7896 13.5187 25.5663C13.5187 25.1197 14.1309 24.7848 14.9102 24.7848L37.7866 24.8406C38.5658 24.8406 39.1781 25.1756 39.1781 25.6221C39.1781 26.0687 38.5658 26.4036 37.7866 26.4036L14.9102 26.3478C14.5206 26.3478 14.1309 26.2362 13.9083 26.1245Z" fill="#B1D351"/>
</svg>
