<svg width="52" height="39" viewBox="0 0 52 39" fill="none" xmlns="http://www.w3.org/2000/svg">
<path d="M52.0001 19.1312H51.2747C50.7168 18.3028 49.8241 17.4743 48.6524 16.8115C44.1889 14.2708 36.9357 14.2155 32.4722 16.7562C31.2447 17.4743 30.4078 18.2475 29.8498 19.1312H29.1245V21.451C29.1803 23.108 30.2962 24.7097 32.4722 25.9801C36.9357 28.5208 44.1889 28.576 48.6524 26.0353C50.8842 24.765 51.9443 23.108 52.0001 21.451V19.1312Z" fill="#BF132C"/>
<path d="M21.0344 13.2214C25.4979 15.7621 32.7511 15.8173 37.2146 13.2766C39.3906 12.0062 40.5065 10.4045 40.5065 8.74752V6.42775H39.7811C39.2232 5.54403 38.3305 4.71554 37.103 4.05275C32.6395 1.51205 25.3863 1.45682 20.9228 3.99752C19.6953 4.71554 18.8026 5.54403 18.2447 6.42775H17.5751V8.74752C17.7425 10.3493 18.8584 11.951 21.0344 13.2214Z" fill="#BF132C"/>
<path d="M19.5279 23.3289C21.7039 22.0586 22.8197 20.4568 22.8197 18.7998V16.4801H22.0944C21.5365 15.5963 20.6438 14.7679 19.4163 14.1051C14.9528 11.5644 7.69957 11.5091 3.23605 14.0498C2.00858 14.7679 1.11588 15.5963 0.55794 16.4801H0V18.7998C0.055794 20.4016 1.17167 22.0586 3.34764 23.2737C7.86695 25.8696 15.1202 25.8696 19.5279 23.3289Z" fill="#BF132C"/>
<path d="M34.3133 31.3376V29.4597H33.6996C33.1416 28.5208 32.2489 27.637 30.9099 26.919C26.4463 24.3783 19.1931 24.3231 14.7296 26.8638C13.3905 27.637 12.4978 28.5208 11.9399 29.4597H11.382V31.7795H11.4378C11.5493 33.326 12.721 34.8725 14.7854 36.0876C19.2489 38.6283 26.5021 38.6836 30.9656 36.1429C33.0858 34.9277 34.2017 33.3812 34.2575 31.7795C34.3133 31.6138 34.3133 31.4481 34.3133 31.3376Z" fill="#BF132C"/>
<path d="M37.2146 11.1777C32.7511 13.7184 25.4979 13.7184 21.0344 11.1225C16.5708 8.58181 16.515 4.43937 20.9786 1.89867C25.4421 -0.642023 32.6953 -0.642023 37.1588 1.95391C41.6223 4.4946 41.6781 8.63705 37.2146 11.1777Z" fill="#D32A2A"/>
<path opacity="0.5" d="M33.4764 2.28531C30.1288 1.07019 25.7211 1.29112 22.8198 2.9481C19.9185 4.60507 19.5279 7.14577 21.7039 9.02368C21.9829 9.29984 22.5966 9.29984 22.9872 9.07891L33.588 3.00333C33.9786 2.83763 33.9786 2.50624 33.4764 2.28531Z" fill="#F68053"/>
<path opacity="0.5" d="M24.7168 10.7911C28.0644 12.0062 32.5279 11.7853 35.3734 10.1283C38.2747 8.47136 38.6095 5.93066 36.4893 4.05275C36.2103 3.77659 35.5966 3.77659 35.206 3.99752L24.6052 10.0731C24.2146 10.294 24.2704 10.6254 24.7168 10.7911Z" fill="#F68053"/>
<path d="M29.8498 3.66612C29.4035 3.61089 29.4035 2.7824 29.5151 2.50624C29.6266 2.23008 30.1288 2.06438 30.5751 2.17484C31.0215 2.23008 31.3005 2.50624 31.1331 2.7824C31.0215 3.05857 30.2962 3.77659 29.8498 3.66612Z" fill="#F68053"/>
<path d="M24.103 6.98008C23.9915 6.70391 22.5408 6.70391 22.0945 6.75915C21.6481 6.81438 21.3691 7.09054 21.4807 7.3667C21.5923 7.64287 22.0945 7.80856 22.5408 7.6981C22.9872 7.64287 24.2146 7.25624 24.103 6.98008Z" fill="#F68053"/>
<path d="M26.5022 3.94229C26.0558 4.05276 25.2189 3.33473 25.0515 3.1138C24.8842 2.83764 25.1073 2.56148 25.5537 2.50625C26 2.39578 26.5022 2.56148 26.6696 2.78241C26.837 3.00334 26.9485 3.83183 26.5022 3.94229Z" fill="#F68053"/>
<path d="M24.4936 5.10218C24.661 4.82601 23.4893 4.38415 23.043 4.27369C22.5966 4.16322 22.0945 4.32892 21.9271 4.54985C21.7597 4.82601 21.9829 5.10218 22.4292 5.15741C22.8756 5.26787 24.3262 5.32311 24.4936 5.10218Z" fill="#F68053"/>
<path d="M34.1459 6.1516C34.2575 6.42776 35.7082 6.42776 36.1545 6.37253C36.6009 6.31729 36.8798 6.04113 36.7683 5.76497C36.6567 5.4888 36.1545 5.32311 35.7082 5.43357C35.2618 5.43357 34.0343 5.87543 34.1459 6.1516Z" fill="#F68053"/>
<path d="M28.3992 9.41032C28.8455 9.46555 28.8455 10.294 28.7339 10.5702C28.6224 10.8464 28.1202 11.0121 27.6739 10.9016C27.2275 10.8464 26.9485 10.5702 27.0601 10.294C27.1717 10.0731 27.897 9.35509 28.3992 9.41032Z" fill="#F68053"/>
<path d="M33.6996 8.0295C33.5322 8.30566 34.7039 8.74752 35.1502 8.85798C35.5966 8.96845 36.0987 8.80275 36.2661 8.58182C36.4335 8.30566 36.2103 8.0295 35.764 7.97426C35.3176 7.8638 33.867 7.75333 33.6996 8.0295Z" fill="#F68053"/>
<path d="M31.691 9.18939C32.1374 9.07893 32.9743 9.79695 33.1417 10.0179C33.3091 10.294 33.0859 10.5702 32.6395 10.6254C32.1932 10.7359 31.691 10.5702 31.5237 10.3493C31.3563 10.1283 31.2447 9.29986 31.691 9.18939Z" fill="#F68053"/>
<path d="M48.6524 23.9917C44.1888 26.5324 36.9356 26.5324 32.4721 23.9365C28.0086 21.3958 27.9528 17.2533 32.4163 14.7126C36.8798 12.1719 44.133 12.1719 48.5966 14.7679C53.1159 17.3086 53.1159 21.451 48.6524 23.9917Z" fill="#D32A2A"/>
<path opacity="0.5" d="M44.9142 15.0993C41.5665 13.8841 37.1588 14.1051 34.2575 15.762C31.3562 17.419 30.9657 19.9597 33.1416 21.8376C33.4206 22.1138 34.0343 22.1138 34.4249 21.8929L45.0257 15.8173C45.4163 15.6516 45.4163 15.265 44.9142 15.0993Z" fill="#F68053"/>
<path opacity="0.5" d="M36.2104 23.6051C39.558 24.8202 43.9657 24.5993 46.867 22.9423C49.7683 21.2853 50.1589 18.7446 47.9829 16.8667C47.7039 16.5905 47.0902 16.5905 46.6996 16.8115L36.0988 22.8871C35.7082 23.108 35.7082 23.4394 36.2104 23.6051Z" fill="#F68053"/>
<path d="M41.2876 16.4801C40.8412 16.4248 40.8412 15.5964 40.9528 15.3202C41.0644 15.044 41.5665 14.8783 42.0129 14.9888C42.4592 15.044 42.7382 15.3202 42.6266 15.5964C42.4592 15.8173 41.7339 16.5353 41.2876 16.4801Z" fill="#F68053"/>
<path d="M35.5408 19.794C35.4292 19.5179 33.9785 19.5179 33.5322 19.5731C33.0858 19.6283 32.8069 19.9045 32.9185 20.1807C33.0301 20.4568 33.5322 20.6225 33.9786 20.5121C34.4249 20.4568 35.6524 20.015 35.5408 19.794Z" fill="#F68053"/>
<path d="M37.9957 16.701C37.5494 16.8115 36.7125 16.0934 36.5451 15.8725C36.3777 15.5964 36.6009 15.3202 37.0472 15.265C37.4936 15.1545 37.9957 15.3202 38.1631 15.5411C38.2747 15.8173 38.4421 16.6458 37.9957 16.701Z" fill="#F68053"/>
<path d="M35.9314 17.8609C36.0987 17.5847 34.9271 17.1429 34.4807 17.0324C34.0344 16.9219 33.5322 17.0876 33.3648 17.3086C33.1975 17.5847 33.4206 17.8609 33.867 17.9161C34.3691 18.0818 35.8198 18.1371 35.9314 17.8609Z" fill="#F68053"/>
<path d="M45.5837 18.9103C45.6953 19.1865 47.1459 19.1865 47.5923 19.1312C48.0386 19.076 48.3176 18.7998 48.206 18.5237C48.0944 18.2475 47.5923 18.0818 47.1459 18.1923C46.6996 18.2475 45.4721 18.6894 45.5837 18.9103Z" fill="#F68053"/>
<path d="M39.8369 22.2243C40.2833 22.2795 40.2833 23.108 40.1717 23.3841C40.0601 23.6603 39.558 23.826 39.1116 23.7155C38.6653 23.6603 38.3863 23.3841 38.4979 23.108C38.6653 22.887 39.3906 22.169 39.8369 22.2243Z" fill="#F68053"/>
<path d="M45.1931 20.8434C45.0257 21.1196 46.1974 21.5615 46.6438 21.6719C47.0901 21.7824 47.5923 21.6167 47.7596 21.3958C47.927 21.1196 47.7038 20.8434 47.2575 20.7882C46.7553 20.6225 45.3605 20.5673 45.1931 20.8434Z" fill="#F68053"/>
<path d="M43.1288 22.0033C43.5751 21.8929 44.4121 22.6109 44.5794 22.8318C44.7468 23.108 44.5236 23.3841 44.0773 23.4394C43.6309 23.5498 43.1288 23.3841 42.9614 23.1632C42.8498 22.887 42.6824 22.0586 43.1288 22.0033Z" fill="#F68053"/>
<path d="M19.5279 21.2853C15.0644 23.826 7.81116 23.826 3.34764 21.2301C-1.11588 18.6341 -1.11588 14.5469 3.34764 12.0062C7.81116 9.46554 15.0644 9.46554 19.5279 12.0615C23.9914 14.6022 23.9914 18.7446 19.5279 21.2853Z" fill="#D32A2A"/>
<path opacity="0.5" d="M15.7897 12.3929C12.4421 11.1777 8.03435 11.3987 5.13306 13.0557C2.23178 14.7126 1.84122 17.2533 4.01718 19.1312C4.29615 19.4074 4.90989 19.4074 5.30044 19.1865L15.9013 13.1109C16.2919 12.9452 16.2919 12.5586 15.7897 12.3929Z" fill="#F68053"/>
<path opacity="0.5" d="M7.0859 20.8987C10.4335 22.1138 14.8971 21.8929 17.7426 20.2359C20.6438 18.5789 21.0344 16.0382 18.8584 14.1603C18.5795 13.8841 17.9657 13.8841 17.5752 14.1051L6.97431 20.1807C6.58375 20.4016 6.58375 20.733 7.0859 20.8987Z" fill="#F68053"/>
<path d="M12.1631 13.7737C11.7168 13.7185 11.7168 12.89 11.8284 12.6138C11.9399 12.3376 12.4421 12.1719 12.8884 12.2824C13.3348 12.3376 13.6138 12.6138 13.5022 12.89C13.3348 13.1661 12.6095 13.8841 12.1631 13.7737Z" fill="#F68053"/>
<path d="M6.41633 17.0876C6.30474 16.8115 4.8541 16.8115 4.40775 16.8667C3.9614 16.9219 3.68243 17.1981 3.79401 17.4743C3.9056 17.7504 4.40775 17.9161 4.8541 17.8057C5.30045 17.7504 6.52792 17.3638 6.41633 17.0876Z" fill="#F68053"/>
<path d="M8.87127 14.0499C8.42492 14.1603 7.58801 13.4423 7.42062 13.2214C7.25324 12.9452 7.47642 12.669 7.92277 12.6138C8.36912 12.5033 8.87127 12.669 9.03865 12.89C9.15024 13.1109 9.31762 13.9394 8.87127 14.0499Z" fill="#F68053"/>
<path d="M6.80691 15.2097C6.97429 14.9336 5.80262 14.4917 5.35627 14.3812C4.90992 14.2708 4.40777 14.4365 4.24039 14.6574C4.07301 14.9336 4.29618 15.2097 4.74253 15.265C5.18889 15.3754 6.63953 15.4307 6.80691 15.2097Z" fill="#F68053"/>
<path d="M16.4593 16.2591C16.5709 16.5353 18.0215 16.5353 18.4679 16.4801C18.9142 16.4248 19.1932 16.1487 19.0816 15.8725C18.97 15.5963 18.4679 15.4307 18.0215 15.5411C17.5752 15.5411 16.3477 15.983 16.4593 16.2591Z" fill="#F68053"/>
<path d="M10.7125 19.5179C11.1588 19.5731 11.1588 20.4016 11.0472 20.6777C10.9357 20.9539 10.4335 21.1196 9.98716 21.0091C9.5408 20.9539 9.26183 20.6777 9.37342 20.4016C9.5408 20.1807 10.2661 19.4626 10.7125 19.5179Z" fill="#F68053"/>
<path d="M16.0687 18.137C15.9013 18.4132 17.073 18.8551 17.5194 18.9655C17.9657 19.076 18.4679 18.9103 18.6353 18.6894C18.8026 18.4132 18.5795 18.137 18.1331 18.0818C17.631 17.9713 16.1803 17.8609 16.0687 18.137Z" fill="#F68053"/>
<path d="M14.0043 19.2969C14.4507 19.1865 15.2876 19.9045 15.455 20.1254C15.6224 20.4016 15.3992 20.6778 14.9528 20.733C14.5065 20.8434 14.0043 20.6778 13.8369 20.4568C13.6696 20.2359 13.558 19.4074 14.0043 19.2969Z" fill="#F68053"/>
<path d="M31.0214 34.0993C26.5579 36.6399 19.3047 36.6399 14.8412 34.044C10.3777 31.5033 10.3219 27.3609 14.7854 24.8202C19.2489 22.2795 26.5021 22.2795 30.9656 24.8754C35.4292 27.4161 35.4292 31.5586 31.0214 34.0993Z" fill="#D32A2A"/>
<path opacity="0.5" d="M27.2832 25.2068C23.9356 23.9917 19.5279 24.2126 16.6266 25.8696C13.7253 27.5266 13.3347 30.0673 15.5107 31.9452C15.7897 32.2213 16.4034 32.2213 16.794 32.0004L27.3948 25.9248C27.7296 25.7039 27.7296 25.3725 27.2832 25.2068Z" fill="#F68053"/>
<path opacity="0.5" d="M18.5236 33.7126C21.8712 34.9277 26.3347 34.7068 29.1802 33.0498C32.0815 31.3929 32.4721 28.8522 30.2961 26.9742C30.0171 26.6981 29.4034 26.6981 29.0129 26.919L18.412 32.9946C18.0214 33.2155 18.0214 33.5469 18.5236 33.7126Z" fill="#F68053"/>
<path d="M23.6008 26.5876C23.1544 26.5324 23.1544 25.7039 23.266 25.4277C23.3776 25.1516 23.8798 24.9859 24.3261 25.0964C24.7725 25.1516 25.0514 25.4277 24.9399 25.7039C24.8283 25.9248 24.0471 26.6429 23.6008 26.5876Z" fill="#F68053"/>
<path d="M17.854 29.9016C17.7424 29.6254 16.2918 29.6254 15.8454 29.6807C15.3991 29.7359 15.1201 30.012 15.2317 30.2882C15.3433 30.5644 15.8454 30.7301 16.2918 30.6196C16.7381 30.5644 17.9656 30.1225 17.854 29.9016Z" fill="#F68053"/>
<path d="M20.309 26.8086C19.8626 26.919 19.0257 26.201 18.8583 25.9801C18.6909 25.7039 18.9141 25.4278 19.3605 25.3725C19.8068 25.2621 20.309 25.4278 20.4763 25.6487C20.6437 25.9248 20.7553 26.7533 20.309 26.8086Z" fill="#F68053"/>
<path d="M18.3004 27.9684C18.4678 27.6923 17.2961 27.2504 16.8497 27.14C16.4034 27.0295 15.9012 27.1952 15.7339 27.4161C15.5665 27.6923 15.7897 27.9684 16.236 28.0237C16.6824 28.1894 18.133 28.2446 18.3004 27.9684Z" fill="#F68053"/>
<path d="M27.8969 29.0179C28.0085 29.294 29.4591 29.294 29.9055 29.2388C30.3518 29.1836 30.6308 28.9074 30.5192 28.6312C30.4076 28.3551 29.9055 28.1894 29.4591 28.2998C29.0128 28.3551 27.7853 28.7969 27.8969 29.0179Z" fill="#F68053"/>
<path d="M22.1502 32.3318C22.5965 32.387 22.5965 33.2155 22.4849 33.4917C22.3733 33.7679 21.8712 33.9336 21.4248 33.8231C20.9785 33.7679 20.6995 33.4917 20.8111 33.2155C20.9785 32.9946 21.7038 32.2766 22.1502 32.3318Z" fill="#F68053"/>
<path d="M27.5063 30.951C27.339 31.2272 28.5106 31.669 28.957 31.7795C29.4033 31.89 29.9055 31.7243 30.0729 31.5033C30.2403 31.2272 30.0171 30.951 29.5707 30.8958C29.1244 30.7301 27.6737 30.6748 27.5063 30.951Z" fill="#F68053"/>
<path d="M25.442 32.1109C25.8883 32.0004 26.7252 32.7184 26.8926 32.9394C27.06 33.2155 26.8368 33.4917 26.3905 33.5469C25.9441 33.6574 25.442 33.4917 25.2746 33.2708C25.163 32.9946 25.0514 32.1661 25.442 32.1109Z" fill="#F68053"/>
</svg>
